{"glyphs":{"0":{"ha":808,"x_min":0,"x_max":0,"o":"m 71 468 b 404 -14 71 157 188 -14 b 738 468 619 -14 738 157 b 404 953 738 779 617 953 b 71 468 190 953 71 779 z m 171 468 b 404 867 171 731 253 867 b 638 468 556 867 638 729 b 404 72 638 208 556 72 b 171 468 250 72 171 210 z "},"1":{"ha":425,"x_min":0,"x_max":0,"o":"m 306 0 l 306 939 l 25 939 l 25 856 l 210 856 l 210 0 z "},"2":{"ha":710,"x_min":0,"x_max":0,"o":"m 643 86 l 219 86 l 449 353 b 633 692 593 514 633 590 b 349 953 633 843 513 953 b 56 671 176 953 56 835 l 150 671 b 344 867 150 788 231 867 b 532 683 454 867 532 789 b 376 394 532 593 490 524 l 76 56 l 76 0 l 643 0 z "},"3":{"ha":794,"x_min":0,"x_max":0,"o":"m 394 -12 b 711 260 583 -12 711 99 b 507 489 711 374 636 457 b 668 707 610 532 668 610 b 389 953 668 851 556 953 b 103 696 229 953 107 843 l 196 696 b 386 874 201 804 275 874 b 568 703 493 874 568 804 b 372 524 568 597 488 524 l 282 524 l 282 443 l 375 443 b 611 258 519 443 611 371 b 394 67 611 140 529 67 b 171 260 264 67 176 142 l 76 260 b 394 -12 81 97 208 -12 z "},"4":{"ha":779,"x_min":0,"x_max":0,"o":"m 719 224 l 719 308 l 593 308 l 593 939 l 525 939 l 40 289 l 40 224 l 497 224 l 497 0 l 593 0 l 593 224 z m 153 308 l 497 781 l 497 308 z "},"5":{"ha":751,"x_min":0,"x_max":0,"o":"m 371 -14 b 694 294 572 -14 694 118 b 386 589 694 456 578 589 b 193 515 314 589 250 567 l 244 854 l 642 854 l 642 939 l 175 939 l 93 417 l 168 394 b 374 506 214 467 283 506 b 596 293 507 506 596 411 b 371 72 596 161 514 72 b 158 261 253 72 167 146 l 64 261 b 371 -14 69 101 200 -14 z "},"6":{"ha":757,"x_min":0,"x_max":0,"o":"m 378 -12 b 706 297 567 -12 706 122 b 397 603 706 482 572 603 b 286 582 363 603 325 596 l 568 939 l 458 939 l 175 582 b 51 294 101 490 51 417 b 378 -12 51 122 190 -12 z m 379 68 b 151 297 249 68 151 164 b 379 528 151 447 249 528 b 606 294 508 528 606 435 b 379 68 606 164 508 68 z "},"7":{"ha":675,"x_min":0,"x_max":0,"o":"m 639 883 l 639 939 l 26 939 l 26 853 l 531 853 l 160 0 l 264 0 z "},"8":{"ha":824,"x_min":0,"x_max":0,"o":"m 742 257 b 551 489 742 379 657 457 b 701 701 635 521 701 600 b 413 953 701 851 576 953 b 122 701 249 953 122 851 b 274 489 122 600 189 521 b 83 257 167 457 83 379 b 413 -12 83 94 218 -12 b 742 257 606 -12 742 94 z m 222 699 b 413 874 222 807 300 874 b 603 699 524 874 603 807 b 413 525 603 590 524 525 b 222 699 300 525 222 590 z m 183 260 b 413 446 183 379 279 446 b 642 260 544 446 642 379 b 413 67 642 139 544 67 b 183 260 279 67 183 139 z "},"9":{"ha":757,"x_min":0,"x_max":0,"o":"m 379 951 b 51 642 190 951 51 817 b 358 338 51 458 183 338 b 469 358 393 338 432 343 l 188 0 l 299 0 l 581 357 b 706 644 660 457 706 529 b 379 951 706 817 567 951 z m 378 871 b 606 642 507 871 606 775 b 378 411 606 492 507 411 b 151 644 246 411 151 504 b 378 871 151 775 246 871 z "}," ":{"ha":290,"x_min":0,"x_max":0,"o":""}," ":{"ha":290,"x_min":0,"x_max":0,"o":""},"A":{"ha":963,"x_min":0,"x_max":0,"o":"m 815 0 l 925 0 l 539 997 l 425 997 l 38 0 l 140 0 l 246 276 l 711 276 z m 479 886 l 678 361 l 278 361 z "},"Á":{"ha":963,"x_min":0,"x_max":0,"o":"m 538 1082 l 685 1268 l 568 1268 l 429 1082 z m 815 0 l 925 0 l 539 997 l 425 997 l 38 0 l 140 0 l 246 276 l 711 276 z m 479 886 l 678 361 l 278 361 z "},"Ă":{"ha":963,"x_min":0,"x_max":0,"o":"m 606 1268 b 481 1144 606 1196 560 1144 b 356 1268 403 1144 356 1196 l 279 1268 b 481 1078 279 1158 357 1078 b 683 1268 604 1078 683 1158 z m 815 0 l 925 0 l 539 997 l 425 997 l 38 0 l 140 0 l 246 276 l 711 276 z m 479 886 l 678 361 l 278 361 z "},"Â":{"ha":963,"x_min":0,"x_max":0,"o":"m 356 1082 l 481 1207 l 608 1082 l 718 1082 l 535 1268 l 428 1268 l 244 1082 z m 815 0 l 925 0 l 539 997 l 425 997 l 38 0 l 140 0 l 246 276 l 711 276 z m 479 886 l 678 361 l 278 361 z "},"Ä":{"ha":963,"x_min":0,"x_max":0,"o":"m 683 1168 b 606 1244 683 1214 651 1244 b 526 1168 560 1244 526 1214 b 606 1093 526 1126 560 1093 b 683 1168 651 1093 683 1126 z m 435 1168 b 357 1244 435 1214 403 1244 b 278 1168 311 1244 278 1214 b 357 1093 278 1126 311 1093 b 435 1168 403 1093 435 1126 z m 815 0 l 925 0 l 539 997 l 425 997 l 38 0 l 140 0 l 246 276 l 711 276 z m 479 886 l 678 361 l 278 361 z "},"À":{"ha":963,"x_min":0,"x_max":0,"o":"m 533 1082 l 393 1268 l 276 1268 l 424 1082 z m 815 0 l 925 0 l 539 997 l 425 997 l 38 0 l 140 0 l 246 276 l 711 276 z m 479 886 l 678 361 l 278 361 z "},"Ā":{"ha":963,"x_min":0,"x_max":0,"o":"m 676 1101 l 676 1171 l 285 1171 l 285 1101 z m 815 0 l 925 0 l 539 997 l 425 997 l 38 0 l 140 0 l 246 276 l 711 276 z m 479 886 l 678 361 l 278 361 z "},"Ą":{"ha":963,"x_min":0,"x_max":0,"o":"m 906 -192 b 850 -204 886 -200 867 -204 b 775 -128 804 -204 775 -174 b 854 0 775 -71 811 -31 l 925 0 l 539 997 l 425 997 l 38 0 l 140 0 l 246 276 l 711 276 l 807 21 b 694 -150 743 -28 694 -81 b 829 -275 694 -228 751 -275 b 906 -261 854 -275 879 -271 z m 479 886 l 678 361 l 278 361 z "},"Å":{"ha":963,"x_min":0,"x_max":0,"o":"m 481 1076 b 640 1224 571 1076 640 1143 b 481 1371 640 1304 571 1371 b 322 1224 390 1371 322 1304 b 481 1076 322 1143 390 1076 z m 481 1133 b 389 1224 431 1133 389 1164 b 481 1314 389 1282 431 1314 b 574 1224 532 1314 574 1282 b 481 1133 574 1164 532 1133 z m 815 0 l 925 0 l 539 997 l 425 997 l 38 0 l 140 0 l 246 276 l 711 276 z m 479 886 l 678 361 l 278 361 z "},"Ã":{"ha":963,"x_min":0,"x_max":0,"o":"m 319 1081 b 382 1189 318 1153 342 1189 b 578 1089 444 1189 488 1089 b 703 1271 661 1089 713 1160 l 635 1271 b 572 1163 636 1199 613 1163 b 376 1264 511 1163 468 1264 b 253 1081 293 1264 243 1193 z m 815 0 l 925 0 l 539 997 l 425 997 l 38 0 l 140 0 l 246 276 l 711 276 z m 479 886 l 678 361 l 278 361 z "},"Æ":{"ha":1218,"x_min":0,"x_max":0,"o":"m 606 276 l 606 0 l 1138 0 l 1138 90 l 710 90 l 710 469 l 1086 469 l 1086 560 l 710 560 l 710 907 l 1128 907 l 1128 997 l 560 997 l 10 0 l 122 0 l 274 276 z m 606 361 l 319 361 l 606 883 z "},"B":{"ha":867,"x_min":0,"x_max":0,"o":"m 783 279 b 579 519 783 399 714 486 b 743 740 681 557 743 642 b 436 997 743 904 629 997 l 113 997 l 113 0 l 457 0 b 783 279 653 0 783 101 z m 431 913 b 642 735 565 913 642 846 b 431 557 642 624 565 557 l 210 557 l 210 913 z m 451 472 b 683 282 597 472 683 401 b 451 85 683 157 597 85 l 210 85 l 210 472 z "},"C":{"ha":1071,"x_min":0,"x_max":0,"o":"m 543 -21 b 1015 378 781 -21 976 140 l 906 378 b 543 72 875 200 728 72 b 163 500 322 72 163 253 b 543 925 163 744 322 925 b 906 621 726 925 874 799 l 1015 621 b 543 1018 976 858 781 1018 b 56 500 265 1018 56 793 b 543 -21 56 206 265 -21 z "},"Ć":{"ha":1071,"x_min":0,"x_max":0,"o":"m 603 1082 l 750 1268 l 635 1268 l 494 1082 z m 543 -21 b 1015 378 781 -21 976 140 l 906 378 b 543 72 875 200 728 72 b 163 500 322 72 163 253 b 543 925 163 744 322 925 b 906 621 726 925 874 799 l 1015 621 b 543 1018 976 858 781 1018 b 56 500 265 1018 56 793 b 543 -21 56 206 265 -21 z "},"Č":{"ha":1071,"x_min":0,"x_max":0,"o":"m 600 1082 l 785 1268 l 674 1268 l 546 1143 l 421 1268 l 310 1268 l 493 1082 z m 543 -21 b 1015 378 781 -21 976 140 l 906 378 b 543 72 875 200 728 72 b 163 500 322 72 163 253 b 543 925 163 744 322 925 b 906 621 726 925 874 799 l 1015 621 b 543 1018 976 858 781 1018 b 56 500 265 1018 56 793 b 543 -21 56 206 265 -21 z "},"Ç":{"ha":1071,"x_min":0,"x_max":0,"o":"m 681 -164 b 553 -51 681 -101 626 -56 l 564 -21 b 1015 378 792 -11 978 147 l 906 378 b 543 72 875 200 728 72 b 163 500 322 72 163 253 b 543 925 163 744 322 925 b 906 621 726 925 874 799 l 1015 621 b 543 1018 976 858 781 1018 b 56 500 265 1018 56 793 b 504 -19 56 219 246 0 l 483 -86 b 606 -161 547 -79 606 -100 b 538 -221 606 -194 579 -221 b 454 -157 493 -221 461 -200 l 386 -157 b 540 -275 396 -233 457 -275 b 681 -164 619 -275 681 -231 z "},"D":{"ha":947,"x_min":0,"x_max":0,"o":"m 396 0 b 892 503 708 0 892 215 b 396 997 892 794 715 997 l 113 997 l 113 0 z m 217 907 l 393 907 b 786 503 649 907 786 749 b 393 90 786 256 646 90 l 217 90 z "},"Ð":{"ha":1006,"x_min":0,"x_max":0,"o":"m 454 0 b 950 503 767 0 950 215 b 454 997 950 794 774 997 l 171 997 l 171 557 l 8 557 l 8 472 l 171 472 l 171 0 z m 492 472 l 492 557 l 275 557 l 275 907 l 451 907 b 844 503 707 907 844 749 b 451 90 844 256 704 90 l 275 90 l 275 472 z "},"Ď":{"ha":947,"x_min":0,"x_max":0,"o":"m 501 1082 l 685 1268 l 574 1268 l 447 1143 l 321 1268 l 210 1268 l 393 1082 z m 396 0 b 892 503 708 0 892 215 b 396 997 892 794 715 997 l 113 997 l 113 0 z m 217 907 l 393 907 b 786 503 649 907 786 749 b 393 90 786 256 646 90 l 217 90 z "},"Đ":{"ha":1006,"x_min":0,"x_max":0,"o":"m 454 0 b 950 503 767 0 950 215 b 454 997 950 794 774 997 l 171 997 l 171 557 l 8 557 l 8 472 l 171 472 l 171 0 z m 492 472 l 492 557 l 275 557 l 275 907 l 451 907 b 844 503 707 907 844 749 b 451 90 844 256 704 90 l 275 90 l 275 472 z "},"E":{"ha":792,"x_min":0,"x_max":0,"o":"m 711 90 l 217 90 l 217 469 l 660 469 l 660 560 l 217 560 l 217 907 l 701 907 l 701 997 l 113 997 l 113 0 l 711 0 z "},"É":{"ha":792,"x_min":0,"x_max":0,"o":"m 471 1082 l 618 1268 l 501 1268 l 361 1082 z m 711 90 l 217 90 l 217 469 l 660 469 l 660 560 l 217 560 l 217 907 l 701 907 l 701 997 l 113 997 l 113 0 l 711 0 z "},"Ě":{"ha":792,"x_min":0,"x_max":0,"o":"m 468 1082 l 651 1268 l 540 1268 l 414 1143 l 288 1268 l 176 1268 l 360 1082 z m 711 90 l 217 90 l 217 469 l 660 469 l 660 560 l 217 560 l 217 907 l 701 907 l 701 997 l 113 997 l 113 0 l 711 0 z "},"Ê":{"ha":792,"x_min":0,"x_max":0,"o":"m 288 1082 l 414 1207 l 540 1082 l 651 1082 l 468 1268 l 360 1268 l 176 1082 z m 711 90 l 217 90 l 217 469 l 660 469 l 660 560 l 217 560 l 217 907 l 701 907 l 701 997 l 113 997 l 113 0 l 711 0 z "},"Ë":{"ha":792,"x_min":0,"x_max":0,"o":"m 617 1168 b 539 1244 617 1214 583 1244 b 460 1168 493 1244 460 1214 b 539 1093 460 1126 493 1093 b 617 1168 583 1093 617 1126 z m 368 1168 b 289 1244 368 1214 336 1244 b 211 1168 243 1244 211 1214 b 289 1093 211 1126 243 1093 b 368 1168 336 1093 368 1126 z m 711 90 l 217 90 l 217 469 l 660 469 l 660 560 l 217 560 l 217 907 l 701 907 l 701 997 l 113 997 l 113 0 l 711 0 z "},"Ė":{"ha":792,"x_min":0,"x_max":0,"o":"m 493 1167 b 414 1239 493 1208 461 1239 b 336 1167 368 1239 336 1208 b 414 1093 336 1124 368 1093 b 493 1167 461 1093 493 1124 z m 711 90 l 217 90 l 217 469 l 660 469 l 660 560 l 217 560 l 217 907 l 701 907 l 701 997 l 113 997 l 113 0 l 711 0 z "},"È":{"ha":792,"x_min":0,"x_max":0,"o":"m 465 1082 l 325 1268 l 208 1268 l 357 1082 z m 711 90 l 217 90 l 217 469 l 660 469 l 660 560 l 217 560 l 217 907 l 701 907 l 701 997 l 113 997 l 113 0 l 711 0 z "},"Ē":{"ha":792,"x_min":0,"x_max":0,"o":"m 610 1101 l 610 1171 l 217 1171 l 217 1101 z m 711 90 l 217 90 l 217 469 l 660 469 l 660 560 l 217 560 l 217 907 l 701 907 l 701 997 l 113 997 l 113 0 l 711 0 z "},"Ę":{"ha":792,"x_min":0,"x_max":0,"o":"m 660 -192 b 604 -204 640 -200 621 -204 b 529 -128 558 -204 529 -174 b 608 0 529 -71 565 -31 l 711 0 l 711 90 l 217 90 l 217 469 l 660 469 l 660 560 l 217 560 l 217 907 l 701 907 l 701 997 l 113 997 l 113 0 l 536 0 b 449 -150 485 -43 449 -90 b 583 -275 449 -228 506 -275 b 660 -261 608 -275 633 -271 z "},"F":{"ha":726,"x_min":0,"x_max":0,"o":"m 217 0 l 217 428 l 619 428 l 619 518 l 217 518 l 217 907 l 685 907 l 685 997 l 113 997 l 113 0 z "},"G":{"ha":1107,"x_min":0,"x_max":0,"o":"m 560 -21 b 1051 499 854 -21 1049 183 l 551 499 l 551 414 l 943 414 b 563 69 917 204 779 69 b 163 497 322 69 163 251 b 550 925 163 749 321 925 b 921 656 751 925 878 807 l 1039 656 b 553 1018 982 856 813 1018 b 56 499 264 1018 56 793 b 560 -21 56 199 274 -21 z "},"Ğ":{"ha":1107,"x_min":0,"x_max":0,"o":"m 676 1268 b 551 1144 676 1196 631 1144 b 426 1268 474 1144 426 1196 l 350 1268 b 551 1078 350 1158 428 1078 b 754 1268 675 1078 754 1158 z m 560 -21 b 1051 499 854 -21 1049 183 l 551 499 l 551 414 l 943 414 b 563 69 917 204 779 69 b 163 497 322 69 163 251 b 550 925 163 749 321 925 b 921 656 751 925 878 807 l 1039 656 b 553 1018 982 856 813 1018 b 56 499 264 1018 56 793 b 560 -21 56 199 274 -21 z "},"Ģ":{"ha":1107,"x_min":0,"x_max":0,"o":"m 560 -21 b 1051 499 854 -21 1049 183 l 551 499 l 551 414 l 943 414 b 563 69 917 204 779 69 b 163 497 322 69 163 251 b 550 925 163 749 321 925 b 921 656 751 925 878 807 l 1039 656 b 553 1018 982 856 813 1018 b 56 499 264 1018 56 793 b 560 -21 56 199 274 -21 z m 629 -161 b 547 -78 629 -114 597 -78 b 479 -135 508 -78 479 -99 b 567 -182 479 -175 521 -199 b 461 -246 563 -221 524 -246 l 461 -292 b 629 -161 563 -299 629 -232 z "},"H":{"ha":1000,"x_min":0,"x_max":0,"o":"m 217 0 l 217 469 l 783 469 l 783 0 l 888 0 l 888 997 l 783 997 l 783 560 l 217 560 l 217 997 l 113 997 l 113 0 z "},"I":{"ha":329,"x_min":0,"x_max":0,"o":"m 217 0 l 217 997 l 113 997 l 113 0 z "},"Í":{"ha":329,"x_min":0,"x_max":0,"o":"m 221 1082 l 354 1268 l 239 1268 l 113 1082 z m 217 0 l 217 997 l 113 997 l 113 0 z "},"Î":{"ha":329,"x_min":0,"x_max":0,"o":"m 54 1082 l 165 1207 l 275 1082 l 386 1082 l 221 1268 l 110 1268 l -57 1082 z m 217 0 l 217 997 l 113 997 l 113 0 z "},"Ï":{"ha":329,"x_min":0,"x_max":0,"o":"m 356 1168 b 282 1244 356 1214 325 1244 b 206 1168 236 1244 206 1214 b 282 1093 206 1126 236 1093 b 356 1168 325 1093 356 1126 z m 126 1168 b 50 1244 126 1214 94 1244 b -25 1168 7 1244 -25 1214 b 50 1093 -25 1126 7 1093 b 126 1168 94 1093 126 1126 z m 217 0 l 217 997 l 113 997 l 113 0 z "},"İ":{"ha":329,"x_min":0,"x_max":0,"o":"m 244 1167 b 165 1239 244 1208 211 1239 b 86 1167 119 1239 86 1208 b 165 1093 86 1124 119 1093 b 244 1167 211 1093 244 1124 z m 217 0 l 217 997 l 113 997 l 113 0 z "},"Ì":{"ha":329,"x_min":0,"x_max":0,"o":"m 217 1082 l 90 1268 l -26 1268 l 108 1082 z m 217 0 l 217 997 l 113 997 l 113 0 z "},"Ī":{"ha":329,"x_min":0,"x_max":0,"o":"m 361 1101 l 361 1171 l -32 1171 l -32 1101 z m 217 0 l 217 997 l 113 997 l 113 0 z "},"Į":{"ha":329,"x_min":0,"x_max":0,"o":"m 217 0 l 217 997 l 113 997 l 113 26 b -8 -150 44 -24 -8 -78 b 126 -275 -8 -228 50 -275 b 204 -261 151 -275 176 -271 l 204 -192 b 147 -204 183 -200 164 -204 b 72 -128 101 -204 72 -174 b 153 0 72 -71 108 -31 z "},"J":{"ha":799,"x_min":0,"x_max":0,"o":"m 693 997 l 589 997 l 589 322 b 358 72 589 151 496 72 b 131 296 229 72 139 153 l 26 296 b 358 -21 36 101 164 -21 b 693 331 563 -21 693 103 z "},"K":{"ha":856,"x_min":0,"x_max":0,"o":"m 217 0 l 217 468 l 689 0 l 824 0 l 324 500 l 810 997 l 689 997 l 217 517 l 217 997 l 113 997 l 113 0 z "},"Ķ":{"ha":856,"x_min":0,"x_max":0,"o":"m 217 0 l 217 468 l 689 0 l 824 0 l 324 500 l 810 997 l 689 997 l 217 517 l 217 997 l 113 997 l 113 0 z m 528 -161 b 446 -78 528 -114 496 -78 b 376 -135 407 -78 376 -99 b 465 -182 376 -175 418 -199 b 360 -246 461 -221 422 -246 l 360 -292 b 528 -161 461 -299 528 -232 z "},"L":{"ha":724,"x_min":0,"x_max":0,"o":"m 682 0 l 682 93 l 217 93 l 217 997 l 113 997 l 113 0 z "},"Ĺ":{"ha":724,"x_min":0,"x_max":0,"o":"m 219 1082 l 367 1268 l 250 1268 l 111 1082 z m 682 0 l 682 93 l 217 93 l 217 997 l 113 997 l 113 0 z "},"Ľ":{"ha":724,"x_min":0,"x_max":0,"o":"m 682 0 l 682 93 l 217 93 l 217 997 l 113 997 l 113 0 z m 428 793 l 450 997 l 363 997 l 363 793 z "},"Ļ":{"ha":724,"x_min":0,"x_max":0,"o":"m 682 0 l 682 93 l 217 93 l 217 997 l 113 997 l 113 0 z m 488 -161 b 406 -78 488 -114 456 -78 b 338 -135 367 -78 338 -99 b 425 -182 338 -175 379 -199 b 319 -246 421 -221 382 -246 l 319 -292 b 488 -161 421 -299 488 -232 z "},"Ł":{"ha":724,"x_min":0,"x_max":0,"o":"m 682 0 l 682 93 l 217 93 l 217 467 l 501 546 l 501 631 l 217 553 l 217 997 l 113 997 l 113 524 l -32 485 l -32 399 l 113 439 l 113 0 z "},"M":{"ha":1235,"x_min":0,"x_max":0,"o":"m 571 0 l 663 0 l 1026 846 l 1026 0 l 1122 0 l 1122 997 l 989 997 l 617 128 l 247 997 l 113 997 l 113 0 l 210 0 l 210 846 z "},"N":{"ha":1015,"x_min":0,"x_max":0,"o":"m 792 0 l 903 0 l 903 997 l 804 997 l 804 158 l 228 997 l 113 997 l 113 0 l 210 0 l 210 850 z "},"Ń":{"ha":1015,"x_min":0,"x_max":0,"o":"m 564 1082 l 711 1268 l 596 1268 l 456 1082 z m 792 0 l 903 0 l 903 997 l 804 997 l 804 158 l 228 997 l 113 997 l 113 0 l 210 0 l 210 850 z "},"Ň":{"ha":1015,"x_min":0,"x_max":0,"o":"m 561 1082 l 746 1268 l 635 1268 l 508 1143 l 382 1268 l 271 1268 l 454 1082 z m 792 0 l 903 0 l 903 997 l 804 997 l 804 158 l 228 997 l 113 997 l 113 0 l 210 0 l 210 850 z "},"Ņ":{"ha":1015,"x_min":0,"x_max":0,"o":"m 792 0 l 903 0 l 903 997 l 804 997 l 804 158 l 228 997 l 113 997 l 113 0 l 210 0 l 210 850 z m 586 -161 b 504 -78 586 -114 554 -78 b 435 -135 464 -78 435 -99 b 524 -182 435 -175 476 -199 b 418 -246 519 -221 479 -246 l 418 -292 b 586 -161 519 -299 586 -232 z "},"Ñ":{"ha":1015,"x_min":0,"x_max":0,"o":"m 346 1081 b 410 1189 346 1153 369 1189 b 606 1089 471 1189 514 1089 b 729 1271 688 1089 739 1160 l 663 1271 b 600 1163 663 1199 640 1163 b 403 1264 539 1163 494 1264 b 281 1081 321 1264 271 1193 z m 792 0 l 903 0 l 903 997 l 804 997 l 804 158 l 228 997 l 113 997 l 113 0 l 210 0 l 210 850 z "},"O":{"ha":1117,"x_min":0,"x_max":0,"o":"m 558 -21 b 1063 500 847 -21 1063 210 b 558 1018 1063 790 847 1018 b 56 500 269 1018 56 790 b 558 -21 56 210 269 -21 z m 558 72 b 163 500 324 72 163 261 b 558 925 163 739 324 925 b 954 500 794 925 954 739 b 558 72 954 261 794 72 z "},"Ó":{"ha":1117,"x_min":0,"x_max":0,"o":"m 615 1082 l 763 1268 l 647 1268 l 507 1082 z m 558 -21 b 1063 500 847 -21 1063 210 b 558 1018 1063 790 847 1018 b 56 500 269 1018 56 790 b 558 -21 56 210 269 -21 z m 558 72 b 163 500 324 72 163 261 b 558 925 163 739 324 925 b 954 500 794 925 954 739 b 558 72 954 261 794 72 z "},"Ô":{"ha":1117,"x_min":0,"x_max":0,"o":"m 433 1082 l 558 1207 l 686 1082 l 797 1082 l 613 1268 l 506 1268 l 322 1082 z m 558 -21 b 1063 500 847 -21 1063 210 b 558 1018 1063 790 847 1018 b 56 500 269 1018 56 790 b 558 -21 56 210 269 -21 z m 558 72 b 163 500 324 72 163 261 b 558 925 163 739 324 925 b 954 500 794 925 954 739 b 558 72 954 261 794 72 z "},"Ö":{"ha":1117,"x_min":0,"x_max":0,"o":"m 761 1168 b 685 1244 761 1214 729 1244 b 606 1168 639 1244 606 1214 b 685 1093 606 1126 639 1093 b 761 1168 729 1093 761 1126 z m 513 1168 b 435 1244 513 1214 481 1244 b 356 1168 389 1244 356 1214 b 435 1093 356 1126 389 1093 b 513 1168 481 1093 513 1126 z m 558 -21 b 1063 500 847 -21 1063 210 b 558 1018 1063 790 847 1018 b 56 500 269 1018 56 790 b 558 -21 56 210 269 -21 z m 558 72 b 163 500 324 72 163 261 b 558 925 163 739 324 925 b 954 500 794 925 954 739 b 558 72 954 261 794 72 z "},"Ò":{"ha":1117,"x_min":0,"x_max":0,"o":"m 611 1082 l 471 1268 l 354 1268 l 503 1082 z m 558 -21 b 1063 500 847 -21 1063 210 b 558 1018 1063 790 847 1018 b 56 500 269 1018 56 790 b 558 -21 56 210 269 -21 z m 558 72 b 163 500 324 72 163 261 b 558 925 163 739 324 925 b 954 500 794 925 954 739 b 558 72 954 261 794 72 z "},"Ő":{"ha":1117,"x_min":0,"x_max":0,"o":"m 715 1082 l 863 1268 l 753 1268 l 610 1082 z m 474 1082 l 615 1268 l 507 1268 l 368 1082 z m 558 -21 b 1063 500 847 -21 1063 210 b 558 1018 1063 790 847 1018 b 56 500 269 1018 56 790 b 558 -21 56 210 269 -21 z m 558 72 b 163 500 324 72 163 261 b 558 925 163 739 324 925 b 954 500 794 925 954 739 b 558 72 954 261 794 72 z "},"Ō":{"ha":1117,"x_min":0,"x_max":0,"o":"m 754 1101 l 754 1171 l 363 1171 l 363 1101 z m 558 -21 b 1063 500 847 -21 1063 210 b 558 1018 1063 790 847 1018 b 56 500 269 1018 56 790 b 558 -21 56 210 269 -21 z m 558 72 b 163 500 324 72 163 261 b 558 925 163 739 324 925 b 954 500 794 925 954 739 b 558 72 954 261 794 72 z "},"Ø":{"ha":1117,"x_min":0,"x_max":0,"o":"m 190 0 l 257 79 b 558 -21 339 17 443 -21 b 1063 500 847 -21 1063 210 b 919 867 1063 644 1008 774 l 1029 997 l 929 997 l 863 918 b 558 1018 779 981 675 1018 b 56 500 269 1018 56 790 b 200 129 56 354 110 224 l 90 0 z m 163 500 b 558 925 163 739 324 925 b 800 844 653 925 735 894 l 264 207 b 163 500 200 282 163 386 z m 558 72 b 319 153 465 72 383 101 l 856 790 b 954 500 918 715 954 614 b 558 72 954 261 794 72 z "},"Õ":{"ha":1117,"x_min":0,"x_max":0,"o":"m 397 1081 b 461 1189 397 1153 421 1189 b 657 1089 522 1189 565 1089 b 781 1271 739 1089 790 1160 l 714 1271 b 650 1163 714 1199 692 1163 b 454 1264 589 1163 546 1264 b 332 1081 372 1264 321 1193 z m 558 -21 b 1063 500 847 -21 1063 210 b 558 1018 1063 790 847 1018 b 56 500 269 1018 56 790 b 558 -21 56 210 269 -21 z m 558 72 b 163 500 324 72 163 261 b 558 925 163 739 324 925 b 954 500 794 925 954 739 b 558 72 954 261 794 72 z "},"Œ":{"ha":1517,"x_min":0,"x_max":0,"o":"m 56 500 b 499 -21 56 196 235 -21 b 849 214 660 -21 785 71 l 849 0 l 1436 0 l 1436 90 l 944 90 l 944 469 l 1385 469 l 1385 560 l 944 560 l 944 907 l 1426 907 l 1426 997 l 849 997 l 849 789 b 499 1018 788 928 658 1018 b 56 500 235 1018 56 804 z m 163 500 b 503 925 163 753 293 925 b 842 500 711 925 842 753 b 503 72 842 247 711 72 b 163 500 293 72 163 247 z "},"P":{"ha":835,"x_min":0,"x_max":0,"o":"m 440 367 b 786 683 646 367 786 482 b 440 997 786 885 646 997 l 113 997 l 113 0 l 217 0 l 217 367 z m 439 908 b 682 683 588 908 682 828 b 439 456 682 538 588 456 l 217 456 l 217 908 z "},"Þ":{"ha":828,"x_min":0,"x_max":0,"o":"m 433 186 b 779 503 639 186 779 301 b 433 817 779 704 639 817 l 217 817 l 217 997 l 113 997 l 113 0 l 217 0 l 217 186 z m 432 729 b 675 503 581 729 675 647 b 432 275 675 357 581 275 l 217 275 l 217 729 z "},"R":{"ha":885,"x_min":0,"x_max":0,"o":"m 217 0 l 217 394 l 444 394 l 713 0 l 838 0 l 556 407 b 811 696 713 433 811 546 b 468 997 811 888 679 997 l 113 997 l 113 0 z m 217 910 l 460 910 b 707 696 613 910 707 835 b 460 482 707 557 613 482 l 217 482 z "},"Ŕ":{"ha":885,"x_min":0,"x_max":0,"o":"m 493 1082 l 640 1268 l 525 1268 l 385 1082 z m 217 0 l 217 394 l 444 394 l 713 0 l 838 0 l 556 407 b 811 696 713 433 811 546 b 468 997 811 888 679 997 l 113 997 l 113 0 z m 217 910 l 460 910 b 707 696 613 910 707 835 b 460 482 707 557 613 482 l 217 482 z "},"Ř":{"ha":885,"x_min":0,"x_max":0,"o":"m 490 1082 l 675 1268 l 564 1268 l 438 1143 l 311 1268 l 200 1268 l 383 1082 z m 217 0 l 217 394 l 444 394 l 713 0 l 838 0 l 556 407 b 811 696 713 433 811 546 b 468 997 811 888 679 997 l 113 997 l 113 0 z m 217 910 l 460 910 b 707 696 613 910 707 835 b 460 482 707 557 613 482 l 217 482 z "},"Ŗ":{"ha":885,"x_min":0,"x_max":0,"o":"m 217 0 l 217 394 l 444 394 l 713 0 l 838 0 l 556 407 b 811 696 713 433 811 546 b 468 997 811 888 679 997 l 113 997 l 113 0 z m 217 910 l 460 910 b 707 696 613 910 707 835 b 460 482 707 557 613 482 l 217 482 z m 515 -161 b 433 -78 515 -114 483 -78 b 364 -135 393 -78 364 -99 b 453 -182 364 -175 406 -199 b 347 -246 449 -221 408 -246 l 347 -292 b 515 -161 449 -299 515 -232 z "},"S":{"ha":893,"x_min":0,"x_max":0,"o":"m 811 276 b 547 531 811 426 715 496 l 421 557 b 210 733 310 579 210 615 b 444 926 210 833 292 926 b 692 699 588 926 685 831 l 799 699 b 443 1011 788 889 638 1011 b 104 728 244 1011 104 888 b 375 467 104 554 243 493 l 501 442 b 701 263 643 413 701 365 b 449 71 701 143 590 71 b 178 304 276 71 188 163 l 72 304 b 450 -14 82 115 218 -14 b 811 276 682 -14 811 118 z "},"Ś":{"ha":893,"x_min":0,"x_max":0,"o":"m 492 1082 l 639 1268 l 522 1268 l 383 1082 z m 811 276 b 547 531 811 426 715 496 l 421 557 b 210 733 310 579 210 615 b 444 926 210 833 292 926 b 692 699 588 926 685 831 l 799 699 b 443 1011 788 889 638 1011 b 104 728 244 1011 104 888 b 375 467 104 554 243 493 l 501 442 b 701 263 643 413 701 365 b 449 71 701 143 590 71 b 178 304 276 71 188 163 l 72 304 b 450 -14 82 115 218 -14 b 811 276 682 -14 811 118 z "},"Š":{"ha":893,"x_min":0,"x_max":0,"o":"m 489 1082 l 674 1268 l 563 1268 l 435 1143 l 310 1268 l 199 1268 l 382 1082 z m 811 276 b 547 531 811 426 715 496 l 421 557 b 210 733 310 579 210 615 b 444 926 210 833 292 926 b 692 699 588 926 685 831 l 799 699 b 443 1011 788 889 638 1011 b 104 728 244 1011 104 888 b 375 467 104 554 243 493 l 501 442 b 701 263 643 413 701 365 b 449 71 701 143 590 71 b 178 304 276 71 188 163 l 72 304 b 450 -14 82 115 218 -14 b 811 276 682 -14 811 118 z "},"Ş":{"ha":893,"x_min":0,"x_max":0,"o":"m 585 -164 b 456 -51 585 -101 531 -56 l 468 -14 b 811 276 689 -7 811 122 b 547 531 811 426 715 496 l 421 557 b 210 733 310 579 210 615 b 444 926 210 833 292 926 b 692 699 588 926 685 831 l 799 699 b 443 1011 788 889 638 1011 b 104 728 244 1011 104 888 b 375 467 104 554 243 493 l 501 442 b 701 263 643 413 701 365 b 449 71 701 143 590 71 b 178 304 276 71 188 163 l 72 304 b 410 -12 82 126 203 1 l 388 -86 b 510 -161 450 -79 510 -100 b 440 -221 510 -194 483 -221 b 357 -157 397 -221 364 -200 l 289 -157 b 443 -275 299 -233 361 -275 b 585 -164 522 -275 585 -231 z "},"Ș":{"ha":893,"x_min":0,"x_max":0,"o":"m 811 276 b 547 531 811 426 715 496 l 421 557 b 210 733 310 579 210 615 b 444 926 210 833 292 926 b 692 699 588 926 685 831 l 799 699 b 443 1011 788 889 638 1011 b 104 728 244 1011 104 888 b 375 467 104 554 243 493 l 501 442 b 701 263 643 413 701 365 b 449 71 701 143 590 71 b 178 304 276 71 188 163 l 72 304 b 450 -14 82 115 218 -14 b 811 276 682 -14 811 118 z m 528 -161 b 446 -78 528 -114 496 -78 b 376 -135 407 -78 376 -99 b 465 -182 376 -175 418 -199 b 360 -246 461 -221 422 -246 l 360 -292 b 528 -161 461 -299 528 -232 z "},"T":{"ha":828,"x_min":0,"x_max":0,"o":"m 465 0 l 465 904 l 800 904 l 800 997 l 28 997 l 28 904 l 363 904 l 363 0 z "},"Ť":{"ha":828,"x_min":0,"x_max":0,"o":"m 468 1082 l 651 1268 l 542 1268 l 414 1143 l 288 1268 l 176 1268 l 360 1082 z m 465 0 l 465 904 l 800 904 l 800 997 l 28 997 l 28 904 l 363 904 l 363 0 z "},"Ţ":{"ha":828,"x_min":0,"x_max":0,"o":"m 465 0 l 465 904 l 800 904 l 800 997 l 28 997 l 28 904 l 363 904 l 363 0 l 378 0 l 351 -86 b 474 -161 414 -79 474 -100 b 404 -221 474 -194 447 -221 b 321 -157 361 -221 328 -200 l 253 -157 b 407 -275 263 -233 325 -275 b 549 -164 486 -275 549 -231 b 419 -51 549 -101 494 -56 l 438 0 z "},"Ț":{"ha":828,"x_min":0,"x_max":0,"o":"m 465 0 l 465 904 l 800 904 l 800 997 l 28 997 l 28 904 l 363 904 l 363 0 z m 492 -161 b 410 -78 492 -114 460 -78 b 340 -135 371 -78 340 -99 b 429 -182 340 -175 382 -199 b 324 -246 425 -221 386 -246 l 324 -292 b 492 -161 425 -299 492 -232 z "},"U":{"ha":949,"x_min":0,"x_max":0,"o":"m 839 997 l 735 997 l 735 336 b 475 72 735 174 629 72 b 214 336 321 72 214 174 l 214 997 l 110 997 l 110 342 b 475 -21 110 118 254 -21 b 839 342 694 -21 839 118 z "},"Ú":{"ha":949,"x_min":0,"x_max":0,"o":"m 531 1082 l 678 1268 l 563 1268 l 422 1082 z m 839 997 l 735 997 l 735 336 b 475 72 735 174 629 72 b 214 336 321 72 214 174 l 214 997 l 110 997 l 110 342 b 475 -21 110 118 254 -21 b 839 342 694 -21 839 118 z "},"Û":{"ha":949,"x_min":0,"x_max":0,"o":"m 349 1082 l 475 1207 l 601 1082 l 713 1082 l 528 1268 l 421 1268 l 238 1082 z m 839 997 l 735 997 l 735 336 b 475 72 735 174 629 72 b 214 336 321 72 214 174 l 214 997 l 110 997 l 110 342 b 475 -21 110 118 254 -21 b 839 342 694 -21 839 118 z "},"Ü":{"ha":949,"x_min":0,"x_max":0,"o":"m 678 1168 b 600 1244 678 1214 644 1244 b 521 1168 554 1244 521 1214 b 600 1093 521 1126 554 1093 b 678 1168 644 1093 678 1126 z m 428 1168 b 350 1244 428 1214 396 1244 b 272 1168 304 1244 272 1214 b 350 1093 272 1126 304 1093 b 428 1168 396 1093 428 1126 z m 839 997 l 735 997 l 735 336 b 475 72 735 174 629 72 b 214 336 321 72 214 174 l 214 997 l 110 997 l 110 342 b 475 -21 110 118 254 -21 b 839 342 694 -21 839 118 z "},"Ù":{"ha":949,"x_min":0,"x_max":0,"o":"m 526 1082 l 386 1268 l 269 1268 l 418 1082 z m 839 997 l 735 997 l 735 336 b 475 72 735 174 629 72 b 214 336 321 72 214 174 l 214 997 l 110 997 l 110 342 b 475 -21 110 118 254 -21 b 839 342 694 -21 839 118 z "},"Ű":{"ha":949,"x_min":0,"x_max":0,"o":"m 631 1082 l 778 1268 l 668 1268 l 526 1082 z m 389 1082 l 531 1268 l 422 1268 l 283 1082 z m 839 997 l 735 997 l 735 336 b 475 72 735 174 629 72 b 214 336 321 72 214 174 l 214 997 l 110 997 l 110 342 b 475 -21 110 118 254 -21 b 839 342 694 -21 839 118 z "},"Ū":{"ha":949,"x_min":0,"x_max":0,"o":"m 669 1101 l 669 1171 l 278 1171 l 278 1101 z m 839 997 l 735 997 l 735 336 b 475 72 735 174 629 72 b 214 336 321 72 214 174 l 214 997 l 110 997 l 110 342 b 475 -21 110 118 254 -21 b 839 342 694 -21 839 118 z "},"Ų":{"ha":949,"x_min":0,"x_max":0,"o":"m 674 -192 b 618 -204 653 -200 635 -204 b 543 -128 572 -204 543 -174 b 635 8 543 -65 585 -24 b 839 342 763 61 839 179 l 839 997 l 735 997 l 735 336 b 475 72 735 174 629 72 b 214 336 321 72 214 174 l 214 997 l 110 997 l 110 342 b 475 -21 110 118 254 -21 b 528 -18 493 -21 511 -19 b 461 -150 488 -56 461 -99 b 597 -275 461 -228 519 -275 b 674 -261 621 -275 646 -271 z "},"Ů":{"ha":949,"x_min":0,"x_max":0,"o":"m 475 1076 b 633 1224 565 1076 633 1143 b 475 1371 633 1304 565 1371 b 317 1224 383 1371 317 1304 b 475 1076 317 1143 383 1076 z m 475 1133 b 383 1224 425 1133 383 1164 b 475 1314 383 1282 425 1314 b 567 1224 526 1314 567 1282 b 475 1133 567 1164 526 1133 z m 839 997 l 735 997 l 735 336 b 475 72 735 174 629 72 b 214 336 321 72 214 174 l 214 997 l 110 997 l 110 342 b 475 -21 110 118 254 -21 b 839 342 694 -21 839 118 z "},"V":{"ha":921,"x_min":0,"x_max":0,"o":"m 890 997 l 786 997 l 461 119 l 139 997 l 31 997 l 403 0 l 517 0 z "},"W":{"ha":1285,"x_min":0,"x_max":0,"o":"m 876 0 l 986 0 l 1249 997 l 1146 997 l 929 149 l 699 997 l 588 997 l 354 151 l 139 997 l 38 997 l 300 0 l 408 0 l 643 856 z "},"Ẃ":{"ha":1285,"x_min":0,"x_max":0,"o":"m 699 1082 l 847 1268 l 731 1268 l 590 1082 z m 876 0 l 986 0 l 1249 997 l 1146 997 l 929 149 l 699 997 l 588 997 l 354 151 l 139 997 l 38 997 l 300 0 l 408 0 l 643 856 z "},"Ŵ":{"ha":1285,"x_min":0,"x_max":0,"o":"m 517 1082 l 643 1207 l 769 1082 l 881 1082 l 696 1268 l 589 1268 l 406 1082 z m 876 0 l 986 0 l 1249 997 l 1146 997 l 929 149 l 699 997 l 588 997 l 354 151 l 139 997 l 38 997 l 300 0 l 408 0 l 643 856 z "},"Ẅ":{"ha":1285,"x_min":0,"x_max":0,"o":"m 846 1168 b 768 1244 846 1214 813 1244 b 689 1168 722 1244 689 1214 b 768 1093 689 1126 722 1093 b 846 1168 813 1093 846 1126 z m 597 1168 b 518 1244 597 1214 565 1244 b 440 1168 472 1244 440 1214 b 518 1093 440 1126 472 1093 b 597 1168 565 1093 597 1126 z m 876 0 l 986 0 l 1249 997 l 1146 997 l 929 149 l 699 997 l 588 997 l 354 151 l 139 997 l 38 997 l 300 0 l 408 0 l 643 856 z "},"Ẁ":{"ha":1285,"x_min":0,"x_max":0,"o":"m 694 1082 l 554 1268 l 438 1268 l 586 1082 z m 876 0 l 986 0 l 1249 997 l 1146 997 l 929 149 l 699 997 l 588 997 l 354 151 l 139 997 l 38 997 l 300 0 l 408 0 l 643 856 z "},"X":{"ha":889,"x_min":0,"x_max":0,"o":"m 165 0 l 446 440 l 722 0 l 843 0 l 518 508 l 826 997 l 711 997 l 449 582 l 192 997 l 72 997 l 376 511 l 47 0 z "},"Y":{"ha":860,"x_min":0,"x_max":0,"o":"m 481 374 l 846 997 l 738 997 l 432 471 l 128 997 l 14 997 l 376 374 l 376 0 l 481 0 z "},"Ý":{"ha":860,"x_min":0,"x_max":0,"o":"m 489 1082 l 636 1268 l 519 1268 l 379 1082 z m 481 374 l 846 997 l 738 997 l 432 471 l 128 997 l 14 997 l 376 374 l 376 0 l 481 0 z "},"Ŷ":{"ha":860,"x_min":0,"x_max":0,"o":"m 306 1082 l 432 1207 l 558 1082 l 669 1082 l 486 1268 l 378 1268 l 194 1082 z m 481 374 l 846 997 l 738 997 l 432 471 l 128 997 l 14 997 l 376 374 l 376 0 l 481 0 z "},"Ÿ":{"ha":860,"x_min":0,"x_max":0,"o":"m 635 1168 b 557 1244 635 1214 601 1244 b 478 1168 511 1244 478 1214 b 557 1093 478 1126 511 1093 b 635 1168 601 1093 635 1126 z m 386 1168 b 307 1244 386 1214 354 1244 b 229 1168 261 1244 229 1214 b 307 1093 229 1126 261 1093 b 386 1168 354 1093 386 1126 z m 481 374 l 846 997 l 738 997 l 432 471 l 128 997 l 14 997 l 376 374 l 376 0 l 481 0 z "},"Ỳ":{"ha":860,"x_min":0,"x_max":0,"o":"m 485 1082 l 343 1268 l 226 1268 l 375 1082 z m 481 374 l 846 997 l 738 997 l 432 471 l 128 997 l 14 997 l 376 374 l 376 0 l 481 0 z "},"Z":{"ha":835,"x_min":0,"x_max":0,"o":"m 783 0 l 783 90 l 182 90 l 763 921 l 763 997 l 71 997 l 71 907 l 632 907 l 53 75 l 53 0 z "},"Ź":{"ha":835,"x_min":0,"x_max":0,"o":"m 475 1082 l 622 1268 l 506 1268 l 365 1082 z m 783 0 l 783 90 l 182 90 l 763 921 l 763 997 l 71 997 l 71 907 l 632 907 l 53 75 l 53 0 z "},"Ž":{"ha":835,"x_min":0,"x_max":0,"o":"m 472 1082 l 656 1268 l 546 1268 l 418 1143 l 292 1268 l 181 1268 l 365 1082 z m 783 0 l 783 90 l 182 90 l 763 921 l 763 997 l 71 997 l 71 907 l 632 907 l 53 75 l 53 0 z "},"Ż":{"ha":835,"x_min":0,"x_max":0,"o":"m 497 1167 b 418 1239 497 1208 465 1239 b 340 1167 372 1239 340 1208 b 418 1093 340 1124 372 1093 b 497 1167 465 1093 497 1124 z m 783 0 l 783 90 l 182 90 l 763 921 l 763 997 l 71 997 l 71 907 l 632 907 l 53 75 l 53 0 z "},"a":{"ha":738,"x_min":0,"x_max":0,"o":"m 556 0 l 639 0 l 639 476 b 368 746 639 646 539 746 b 85 475 201 746 89 638 l 174 475 b 369 668 175 594 250 668 b 546 474 481 668 546 596 l 546 413 b 396 421 474 418 440 421 b 60 203 174 421 60 346 b 310 -14 60 71 158 -14 b 556 133 424 -14 513 42 z m 153 206 b 400 356 153 307 233 356 b 546 349 440 356 483 354 l 546 283 b 324 57 546 146 460 57 b 153 206 221 57 153 117 z "},"á":{"ha":738,"x_min":0,"x_max":0,"o":"m 425 817 l 572 1003 l 457 1003 l 317 817 z m 556 0 l 639 0 l 639 476 b 368 746 639 646 539 746 b 85 475 201 746 89 638 l 174 475 b 369 668 175 594 250 668 b 546 474 481 668 546 596 l 546 413 b 396 421 474 418 440 421 b 60 203 174 421 60 346 b 310 -14 60 71 158 -14 b 556 133 424 -14 513 42 z m 153 206 b 400 356 153 307 233 356 b 546 349 440 356 483 354 l 546 283 b 324 57 546 146 460 57 b 153 206 221 57 153 117 z "},"ă":{"ha":738,"x_min":0,"x_max":0,"o":"m 494 1003 b 368 879 494 931 447 879 b 243 1003 292 879 243 931 l 167 1003 b 368 813 167 893 246 813 b 571 1003 492 813 571 893 z m 556 0 l 639 0 l 639 476 b 368 746 639 646 539 746 b 85 475 201 746 89 638 l 174 475 b 369 668 175 594 250 668 b 546 474 481 668 546 596 l 546 413 b 396 421 474 418 440 421 b 60 203 174 421 60 346 b 310 -14 60 71 158 -14 b 556 133 424 -14 513 42 z m 153 206 b 400 356 153 307 233 356 b 546 349 440 356 483 354 l 546 283 b 324 57 546 146 460 57 b 153 206 221 57 153 117 z "},"â":{"ha":738,"x_min":0,"x_max":0,"o":"m 243 817 l 368 942 l 496 817 l 607 817 l 422 1003 l 315 1003 l 132 817 z m 556 0 l 639 0 l 639 476 b 368 746 639 646 539 746 b 85 475 201 746 89 638 l 174 475 b 369 668 175 594 250 668 b 546 474 481 668 546 596 l 546 413 b 396 421 474 418 440 421 b 60 203 174 421 60 346 b 310 -14 60 71 158 -14 b 556 133 424 -14 513 42 z m 153 206 b 400 356 153 307 233 356 b 546 349 440 356 483 354 l 546 283 b 324 57 546 146 460 57 b 153 206 221 57 153 117 z "},"ä":{"ha":738,"x_min":0,"x_max":0,"o":"m 571 903 b 494 979 571 949 539 979 b 415 903 449 979 415 949 b 494 828 415 861 449 828 b 571 903 539 828 571 861 z m 322 903 b 244 979 322 949 290 979 b 165 903 199 979 165 949 b 244 828 165 861 199 828 b 322 903 290 828 322 861 z m 556 0 l 639 0 l 639 476 b 368 746 639 646 539 746 b 85 475 201 746 89 638 l 174 475 b 369 668 175 594 250 668 b 546 474 481 668 546 596 l 546 413 b 396 421 474 418 440 421 b 60 203 174 421 60 346 b 310 -14 60 71 158 -14 b 556 133 424 -14 513 42 z m 153 206 b 400 356 153 307 233 356 b 546 349 440 356 483 354 l 546 283 b 324 57 546 146 460 57 b 153 206 221 57 153 117 z "},"à":{"ha":738,"x_min":0,"x_max":0,"o":"m 421 817 l 281 1003 l 164 1003 l 313 817 z m 556 0 l 639 0 l 639 476 b 368 746 639 646 539 746 b 85 475 201 746 89 638 l 174 475 b 369 668 175 594 250 668 b 546 474 481 668 546 596 l 546 413 b 396 421 474 418 440 421 b 60 203 174 421 60 346 b 310 -14 60 71 158 -14 b 556 133 424 -14 513 42 z m 153 206 b 400 356 153 307 233 356 b 546 349 440 356 483 354 l 546 283 b 324 57 546 146 460 57 b 153 206 221 57 153 117 z "},"ā":{"ha":738,"x_min":0,"x_max":0,"o":"m 564 836 l 564 906 l 172 906 l 172 836 z m 556 0 l 639 0 l 639 476 b 368 746 639 646 539 746 b 85 475 201 746 89 638 l 174 475 b 369 668 175 594 250 668 b 546 474 481 668 546 596 l 546 413 b 396 421 474 418 440 421 b 60 203 174 421 60 346 b 310 -14 60 71 158 -14 b 556 133 424 -14 513 42 z m 153 206 b 400 356 153 307 233 356 b 546 349 440 356 483 354 l 546 283 b 324 57 546 146 460 57 b 153 206 221 57 153 117 z "},"ą":{"ha":738,"x_min":0,"x_max":0,"o":"m 646 -192 b 590 -204 626 -200 607 -204 b 515 -128 544 -204 515 -174 b 594 0 515 -71 551 -31 l 639 0 l 639 476 b 368 746 639 646 539 746 b 85 475 201 746 89 638 l 174 475 b 369 668 175 594 250 668 b 546 474 481 668 546 596 l 546 413 b 396 421 474 418 440 421 b 60 203 174 421 60 346 b 310 -14 60 71 158 -14 b 556 133 424 -14 513 42 l 556 26 b 435 -150 488 -24 435 -78 b 569 -275 435 -228 492 -275 b 646 -261 594 -275 619 -271 z m 153 206 b 400 356 153 307 233 356 b 546 349 440 356 483 354 l 546 283 b 324 57 546 146 460 57 b 153 206 221 57 153 117 z "},"å":{"ha":738,"x_min":0,"x_max":0,"o":"m 368 811 b 528 958 460 811 528 878 b 368 1106 528 1039 460 1106 b 211 958 278 1106 211 1039 b 368 811 211 878 278 811 z m 368 868 b 276 958 319 868 276 899 b 368 1047 276 1017 319 1047 b 461 958 421 1047 461 1017 b 368 868 461 899 421 868 z m 556 0 l 639 0 l 639 476 b 368 746 639 646 539 746 b 85 475 201 746 89 638 l 174 475 b 369 668 175 594 250 668 b 546 474 481 668 546 596 l 546 413 b 396 421 474 418 440 421 b 60 203 174 421 60 346 b 310 -14 60 71 158 -14 b 556 133 424 -14 513 42 z m 153 206 b 400 356 153 307 233 356 b 546 349 440 356 483 354 l 546 283 b 324 57 546 146 460 57 b 153 206 221 57 153 117 z "},"ã":{"ha":738,"x_min":0,"x_max":0,"o":"m 207 815 b 271 924 206 888 231 924 b 467 824 332 924 375 824 b 590 1006 549 824 600 894 l 524 1006 b 460 897 524 933 501 897 b 264 997 399 897 356 997 b 142 815 182 997 131 928 z m 556 0 l 639 0 l 639 476 b 368 746 639 646 539 746 b 85 475 201 746 89 638 l 174 475 b 369 668 175 594 250 668 b 546 474 481 668 546 596 l 546 413 b 396 421 474 418 440 421 b 60 203 174 421 60 346 b 310 -14 60 71 158 -14 b 556 133 424 -14 513 42 z m 153 206 b 400 356 153 307 233 356 b 546 349 440 356 483 354 l 546 283 b 324 57 546 146 460 57 b 153 206 221 57 153 117 z "},"æ":{"ha":1232,"x_min":0,"x_max":0,"o":"m 60 200 b 313 -14 60 74 163 -14 b 588 190 450 -14 550 63 b 871 -14 638 58 739 -14 b 1178 247 1031 -14 1147 86 l 1082 247 b 868 64 1061 132 983 64 b 638 351 725 64 640 174 l 1176 351 b 865 746 1190 589 1064 746 b 606 586 756 746 658 683 b 364 746 572 689 486 746 b 88 475 204 746 92 633 l 176 475 b 365 668 176 594 253 668 b 546 465 479 668 546 594 l 546 413 b 386 414 518 414 419 414 b 60 200 176 414 60 338 z m 861 671 b 1076 418 990 671 1069 579 l 639 418 b 861 671 646 569 739 671 z m 153 203 b 390 350 153 301 232 350 b 546 347 419 350 511 349 l 546 289 b 324 57 546 149 458 57 b 153 203 224 57 153 117 z "},"b":{"ha":828,"x_min":0,"x_max":0,"o":"m 776 367 b 454 746 776 592 650 746 b 203 578 343 746 250 685 l 203 997 l 106 997 l 106 0 l 196 0 l 196 154 b 454 -14 247 47 342 -14 b 776 367 650 -14 776 142 z m 678 367 b 439 71 678 181 582 71 b 201 369 299 71 201 186 b 439 661 201 554 301 661 b 678 367 582 661 678 553 z "},"c":{"ha":753,"x_min":0,"x_max":0,"o":"m 379 -15 b 701 283 551 -15 675 97 l 603 283 b 379 69 581 147 499 69 b 150 367 243 69 150 189 b 379 661 150 542 243 661 b 603 449 497 661 581 582 l 701 449 b 379 746 672 632 550 746 b 51 367 188 746 51 589 b 379 -15 51 142 186 -15 z "},"ć":{"ha":753,"x_min":0,"x_max":0,"o":"m 439 817 l 586 1003 l 469 1003 l 331 817 z m 379 -15 b 701 283 551 -15 675 97 l 603 283 b 379 69 581 147 499 69 b 150 367 243 69 150 189 b 379 661 150 542 243 661 b 603 449 497 661 581 582 l 701 449 b 379 746 672 632 550 746 b 51 367 188 746 51 589 b 379 -15 51 142 186 -15 z "},"č":{"ha":753,"x_min":0,"x_max":0,"o":"m 436 817 l 621 1003 l 510 1003 l 382 878 l 257 1003 l 146 1003 l 329 817 z m 379 -15 b 701 283 551 -15 675 97 l 603 283 b 379 69 581 147 499 69 b 150 367 243 69 150 189 b 379 661 150 542 243 661 b 603 449 497 661 581 582 l 701 449 b 379 746 672 632 550 746 b 51 367 188 746 51 589 b 379 -15 51 142 186 -15 z "},"ç":{"ha":753,"x_min":0,"x_max":0,"o":"m 517 -164 b 388 -51 517 -101 463 -56 l 400 -15 b 701 283 561 -6 676 104 l 603 283 b 379 69 581 147 499 69 b 150 367 243 69 150 189 b 379 661 150 542 243 661 b 603 449 497 661 581 582 l 701 449 b 379 746 672 632 550 746 b 51 367 188 746 51 589 b 343 -14 51 156 169 6 l 319 -86 b 442 -161 383 -79 442 -100 b 374 -221 442 -194 415 -221 b 289 -157 329 -221 297 -200 l 221 -157 b 375 -275 232 -233 293 -275 b 517 -164 456 -275 517 -231 z "},"d":{"ha":828,"x_min":0,"x_max":0,"o":"m 51 367 b 374 -14 51 142 176 -14 b 632 154 486 -14 581 47 l 632 0 l 722 0 l 722 997 l 625 997 l 625 579 b 374 746 576 683 483 746 b 51 367 176 746 51 592 z m 150 367 b 388 661 150 553 244 661 b 626 369 526 661 626 554 b 388 71 626 186 529 71 b 150 367 244 71 150 181 z "},"ð":{"ha":794,"x_min":0,"x_max":0,"o":"m 51 363 b 397 -14 51 149 196 -14 b 743 353 601 -14 743 146 b 622 692 743 490 710 579 l 478 876 l 617 935 l 615 1006 l 435 933 l 385 997 l 276 997 l 347 906 l 215 849 l 215 779 l 390 850 l 514 694 b 379 736 472 724 431 736 b 51 363 182 736 51 579 z m 150 364 b 397 658 150 549 249 658 b 643 353 544 658 643 542 b 397 71 643 179 543 71 b 150 364 251 71 150 183 z "},"ď":{"ha":828,"x_min":0,"x_max":0,"o":"m 51 367 b 374 -14 51 142 176 -14 b 632 154 486 -14 581 47 l 632 0 l 722 0 l 722 997 l 625 997 l 625 579 b 374 746 576 683 483 746 b 51 367 176 746 51 592 z m 861 793 l 883 997 l 796 997 l 796 793 z m 150 367 b 388 661 150 553 244 661 b 626 369 526 661 626 554 b 388 71 626 186 529 71 b 150 367 244 71 150 181 z "},"đ":{"ha":828,"x_min":0,"x_max":0,"o":"m 51 367 b 374 -14 51 142 176 -14 b 632 154 486 -14 581 47 l 632 0 l 722 0 l 722 836 l 854 836 l 854 904 l 722 904 l 722 997 l 625 997 l 625 904 l 447 904 l 447 836 l 625 836 l 625 579 b 374 746 576 683 483 746 b 51 367 176 746 51 592 z m 150 367 b 388 661 150 553 244 661 b 626 369 526 661 626 554 b 388 71 626 186 529 71 b 150 367 244 71 150 181 z "},"e":{"ha":771,"x_min":0,"x_max":0,"o":"m 393 -14 b 718 247 561 -14 685 85 l 622 247 b 392 63 599 131 514 63 b 149 343 249 63 157 169 l 715 343 b 388 746 732 578 596 746 b 51 372 193 746 51 586 b 393 -14 51 140 188 -14 z m 386 671 b 614 410 521 671 606 574 l 149 410 b 386 671 161 569 254 671 z "},"é":{"ha":771,"x_min":0,"x_max":0,"o":"m 443 817 l 592 1003 l 475 1003 l 335 817 z m 393 -14 b 718 247 561 -14 685 85 l 622 247 b 392 63 599 131 514 63 b 149 343 249 63 157 169 l 715 343 b 388 746 732 578 596 746 b 51 372 193 746 51 586 b 393 -14 51 140 188 -14 z m 386 671 b 614 410 521 671 606 574 l 149 410 b 386 671 161 569 254 671 z "},"ě":{"ha":771,"x_min":0,"x_max":0,"o":"m 440 817 l 625 1003 l 514 1003 l 388 878 l 261 1003 l 150 1003 l 333 817 z m 393 -14 b 718 247 561 -14 685 85 l 622 247 b 392 63 599 131 514 63 b 149 343 249 63 157 169 l 715 343 b 388 746 732 578 596 746 b 51 372 193 746 51 586 b 393 -14 51 140 188 -14 z m 386 671 b 614 410 521 671 606 574 l 149 410 b 386 671 161 569 254 671 z "},"ê":{"ha":771,"x_min":0,"x_max":0,"o":"m 261 817 l 388 942 l 514 817 l 625 817 l 440 1003 l 333 1003 l 150 817 z m 393 -14 b 718 247 561 -14 685 85 l 622 247 b 392 63 599 131 514 63 b 149 343 249 63 157 169 l 715 343 b 388 746 732 578 596 746 b 51 372 193 746 51 586 b 393 -14 51 140 188 -14 z m 386 671 b 614 410 521 671 606 574 l 149 410 b 386 671 161 569 254 671 z "},"ë":{"ha":771,"x_min":0,"x_max":0,"o":"m 590 903 b 513 979 590 949 557 979 b 433 903 467 979 433 949 b 513 828 433 861 467 828 b 590 903 557 828 590 861 z m 342 903 b 263 979 342 949 310 979 b 185 903 217 979 185 949 b 263 828 185 861 217 828 b 342 903 310 828 342 861 z m 393 -14 b 718 247 561 -14 685 85 l 622 247 b 392 63 599 131 514 63 b 149 343 249 63 157 169 l 715 343 b 388 746 732 578 596 746 b 51 372 193 746 51 586 b 393 -14 51 140 188 -14 z m 386 671 b 614 410 521 671 606 574 l 149 410 b 386 671 161 569 254 671 z "},"ė":{"ha":771,"x_min":0,"x_max":0,"o":"m 467 901 b 388 974 467 943 433 974 b 308 901 342 974 308 943 b 388 828 308 858 342 828 b 467 901 433 828 467 858 z m 393 -14 b 718 247 561 -14 685 85 l 622 247 b 392 63 599 131 514 63 b 149 343 249 63 157 169 l 715 343 b 388 746 732 578 596 746 b 51 372 193 746 51 586 b 393 -14 51 140 188 -14 z m 386 671 b 614 410 521 671 606 574 l 149 410 b 386 671 161 569 254 671 z "},"è":{"ha":771,"x_min":0,"x_max":0,"o":"m 439 817 l 299 1003 l 182 1003 l 331 817 z m 393 -14 b 718 247 561 -14 685 85 l 622 247 b 392 63 599 131 514 63 b 149 343 249 63 157 169 l 715 343 b 388 746 732 578 596 746 b 51 372 193 746 51 586 b 393 -14 51 140 188 -14 z m 386 671 b 614 410 521 671 606 574 l 149 410 b 386 671 161 569 254 671 z "},"ē":{"ha":771,"x_min":0,"x_max":0,"o":"m 583 836 l 583 906 l 190 906 l 190 836 z m 393 -14 b 718 247 561 -14 685 85 l 622 247 b 392 63 599 131 514 63 b 149 343 249 63 157 169 l 715 343 b 388 746 732 578 596 746 b 51 372 193 746 51 586 b 393 -14 51 140 188 -14 z m 386 671 b 614 410 521 671 606 574 l 149 410 b 386 671 161 569 254 671 z "},"ę":{"ha":771,"x_min":0,"x_max":0,"o":"m 393 -14 b 422 -12 403 -14 413 -14 b 350 -150 379 -53 350 -96 b 485 -275 350 -228 408 -275 b 563 -261 510 -275 535 -271 l 563 -192 b 506 -204 542 -200 522 -204 b 432 -128 461 -204 432 -174 b 526 10 432 -64 475 -22 b 718 247 625 49 694 132 l 622 247 b 392 63 599 131 514 63 b 149 343 249 63 157 169 l 715 343 b 388 746 732 578 596 746 b 51 372 193 746 51 586 b 393 -14 51 140 188 -14 z m 386 671 b 614 410 521 671 606 574 l 149 410 b 386 671 161 569 254 671 z "},"f":{"ha":489,"x_min":0,"x_max":0,"o":"m 267 0 l 267 650 l 482 650 l 482 732 l 267 732 l 267 799 b 388 924 267 885 310 924 b 458 913 413 924 435 922 l 458 993 b 371 1008 433 1003 404 1008 b 169 799 243 1008 169 933 l 169 732 l -3 732 l -3 650 l 169 650 l 169 0 z "},"g":{"ha":803,"x_min":0,"x_max":0,"o":"m 382 -283 b 697 17 582 -283 697 -172 l 697 732 l 607 732 l 607 576 b 358 746 560 683 468 746 b 51 376 174 746 51 599 b 360 6 51 154 175 6 b 601 168 468 6 557 65 l 601 15 b 381 -206 601 -129 525 -206 b 164 -22 250 -206 172 -142 l 71 -22 b 382 -283 79 -186 196 -283 z m 149 376 b 374 663 149 554 235 663 b 603 369 513 663 603 549 b 374 89 603 200 511 89 b 149 376 233 89 149 197 z "},"ğ":{"ha":803,"x_min":0,"x_max":0,"o":"m 507 1003 b 382 879 507 931 461 879 b 257 1003 304 879 257 931 l 181 1003 b 382 813 181 893 258 813 b 585 1003 506 813 585 893 z m 382 -283 b 697 17 582 -283 697 -172 l 697 732 l 607 732 l 607 576 b 358 746 560 683 468 746 b 51 376 174 746 51 599 b 360 6 51 154 175 6 b 601 168 468 6 557 65 l 601 15 b 381 -206 601 -129 525 -206 b 164 -22 250 -206 172 -142 l 71 -22 b 382 -283 79 -186 196 -283 z m 149 376 b 374 663 149 554 235 663 b 603 369 513 663 603 549 b 374 89 603 200 511 89 b 149 376 233 89 149 197 z "},"ģ":{"ha":803,"x_min":0,"x_max":0,"o":"m 304 893 b 386 810 304 846 336 810 b 456 867 425 810 456 831 b 396 919 456 897 429 919 b 367 914 386 919 376 917 b 472 978 371 953 410 978 l 472 1024 b 304 893 371 1029 304 964 z m 382 -283 b 697 17 582 -283 697 -172 l 697 732 l 607 732 l 607 576 b 358 746 560 683 468 746 b 51 376 174 746 51 599 b 360 6 51 154 175 6 b 601 168 468 6 557 65 l 601 15 b 381 -206 601 -129 525 -206 b 164 -22 250 -206 172 -142 l 71 -22 b 382 -283 79 -186 196 -283 z m 149 376 b 374 663 149 554 235 663 b 603 369 513 663 603 549 b 374 89 603 200 511 89 b 149 376 233 89 149 197 z "},"h":{"ha":788,"x_min":0,"x_max":0,"o":"m 203 426 b 408 661 203 563 294 661 b 592 442 528 661 592 582 l 592 0 l 689 0 l 689 475 b 438 746 689 649 590 746 b 203 597 332 746 249 685 l 203 997 l 106 997 l 106 0 l 203 0 z "},"i":{"ha":308,"x_min":0,"x_max":0,"o":"m 232 901 b 153 974 232 943 200 974 b 75 901 107 974 75 943 b 153 828 75 858 107 828 b 232 901 200 828 232 858 z m 203 0 l 203 732 l 106 732 l 106 0 z "},"í":{"ha":308,"x_min":0,"x_max":0,"o":"m 210 817 l 343 1003 l 226 1003 l 100 817 z m 203 0 l 203 732 l 106 732 l 106 0 z "},"î":{"ha":308,"x_min":0,"x_max":0,"o":"m 42 817 l 153 942 l 264 817 l 374 817 l 208 1003 l 97 1003 l -69 817 z m 203 0 l 203 732 l 106 732 l 106 0 z "},"ï":{"ha":308,"x_min":0,"x_max":0,"o":"m 343 903 b 269 979 343 949 313 979 b 194 903 225 979 194 949 b 269 828 194 861 225 828 b 343 903 313 828 343 861 z m 114 903 b 38 979 114 949 82 979 b -37 903 -6 979 -37 949 b 38 828 -37 861 -6 828 b 114 903 82 828 114 861 z m 203 0 l 203 732 l 106 732 l 106 0 z "},"ì":{"ha":308,"x_min":0,"x_max":0,"o":"m 206 817 l 78 1003 l -37 1003 l 96 817 z m 203 0 l 203 732 l 106 732 l 106 0 z "},"ī":{"ha":308,"x_min":0,"x_max":0,"o":"m 349 836 l 349 906 l -44 906 l -44 836 z m 203 0 l 203 732 l 106 732 l 106 0 z "},"į":{"ha":308,"x_min":0,"x_max":0,"o":"m 232 901 b 153 974 232 943 200 974 b 75 901 107 974 75 943 b 153 828 75 858 107 828 b 232 901 200 828 232 858 z m 203 0 l 203 732 l 106 732 l 106 26 b -15 -150 38 -24 -15 -78 b 119 -275 -15 -228 43 -275 b 196 -261 144 -275 169 -271 l 196 -192 b 140 -204 176 -200 157 -204 b 65 -128 94 -204 65 -174 b 144 0 65 -71 101 -31 z "},"j":{"ha":307,"x_min":0,"x_max":0,"o":"m 233 901 b 154 974 233 943 200 974 b 75 901 108 974 75 943 b 154 828 75 858 108 828 b 233 901 200 828 233 858 z m 201 732 l 106 732 l 106 -68 b -11 -193 106 -156 60 -193 b -92 -179 -42 -193 -65 -189 l -92 -268 b -1 -282 -61 -281 -28 -282 b 201 -69 122 -282 201 -210 z "},"k":{"ha":703,"x_min":0,"x_max":0,"o":"m 203 0 l 203 351 l 575 0 l 701 0 l 301 374 l 671 732 l 556 732 l 203 392 l 203 997 l 106 997 l 106 0 z "},"ķ":{"ha":703,"x_min":0,"x_max":0,"o":"m 203 0 l 203 351 l 575 0 l 701 0 l 301 374 l 671 732 l 556 732 l 203 392 l 203 997 l 106 997 l 106 0 z m 461 -161 b 379 -78 461 -114 429 -78 b 311 -135 340 -78 311 -99 b 399 -182 311 -175 353 -199 b 293 -246 394 -221 356 -246 l 293 -292 b 461 -161 394 -299 461 -232 z "},"l":{"ha":308,"x_min":0,"x_max":0,"o":"m 203 0 l 203 997 l 106 997 l 106 0 z "},"ĺ":{"ha":308,"x_min":0,"x_max":0,"o":"m 211 1082 l 360 1268 l 243 1268 l 103 1082 z m 203 0 l 203 997 l 106 997 l 106 0 z "},"ľ":{"ha":308,"x_min":0,"x_max":0,"o":"m 203 0 l 203 997 l 106 997 l 106 0 z m 342 793 l 365 997 l 276 997 l 276 793 z "},"ļ":{"ha":308,"x_min":0,"x_max":0,"o":"m 203 0 l 203 997 l 106 997 l 106 0 z m 233 -161 b 151 -78 233 -114 201 -78 b 82 -135 111 -78 82 -99 b 171 -182 82 -175 124 -199 b 65 -246 167 -221 128 -246 l 65 -292 b 233 -161 167 -299 233 -232 z "},"ł":{"ha":308,"x_min":0,"x_max":0,"o":"m 203 0 l 203 472 l 368 517 l 368 599 l 203 554 l 203 997 l 106 997 l 106 528 l -56 485 l -56 404 l 106 447 l 106 0 z "},"m":{"ha":1261,"x_min":0,"x_max":0,"o":"m 203 0 l 203 429 b 404 661 203 564 292 661 b 586 443 522 661 586 582 l 586 0 l 683 0 l 683 429 b 885 661 683 564 774 661 b 1067 443 1003 661 1067 582 l 1067 0 l 1163 0 l 1163 475 b 917 746 1163 646 1068 746 b 664 576 801 746 710 679 b 435 746 633 683 549 746 b 196 594 331 746 244 689 l 196 732 l 106 732 l 106 0 z "},"n":{"ha":788,"x_min":0,"x_max":0,"o":"m 203 426 b 408 661 203 563 294 661 b 592 442 528 661 592 582 l 592 0 l 689 0 l 689 475 b 438 746 689 649 590 746 b 196 594 332 746 243 685 l 196 732 l 106 732 l 106 0 l 203 0 z "},"ń":{"ha":788,"x_min":0,"x_max":0,"o":"m 453 817 l 601 1003 l 485 1003 l 344 817 z m 203 426 b 408 661 203 563 294 661 b 592 442 528 661 592 582 l 592 0 l 689 0 l 689 475 b 438 746 689 649 590 746 b 196 594 332 746 243 685 l 196 732 l 106 732 l 106 0 l 203 0 z "},"ň":{"ha":788,"x_min":0,"x_max":0,"o":"m 450 817 l 635 1003 l 524 1003 l 397 878 l 271 1003 l 160 1003 l 343 817 z m 203 426 b 408 661 203 563 294 661 b 592 442 528 661 592 582 l 592 0 l 689 0 l 689 475 b 438 746 689 649 590 746 b 196 594 332 746 243 685 l 196 732 l 106 732 l 106 0 l 203 0 z "},"ņ":{"ha":788,"x_min":0,"x_max":0,"o":"m 203 426 b 408 661 203 563 294 661 b 592 442 528 661 592 582 l 592 0 l 689 0 l 689 475 b 438 746 689 649 590 746 b 196 594 332 746 243 685 l 196 732 l 106 732 l 106 0 l 203 0 z m 475 -161 b 393 -78 475 -114 443 -78 b 324 -135 353 -78 324 -99 b 413 -182 324 -175 365 -199 b 307 -246 408 -221 369 -246 l 307 -292 b 475 -161 408 -299 475 -232 z "},"ñ":{"ha":788,"x_min":0,"x_max":0,"o":"m 235 815 b 299 924 235 888 258 924 b 494 824 360 924 404 824 b 618 1006 576 824 628 894 l 551 1006 b 489 897 551 933 529 897 b 293 997 428 897 383 997 b 169 815 210 997 160 928 z m 203 426 b 408 661 203 563 294 661 b 592 442 528 661 592 582 l 592 0 l 689 0 l 689 475 b 438 746 689 649 590 746 b 196 594 332 746 243 685 l 196 732 l 106 732 l 106 0 l 203 0 z "},"o":{"ha":799,"x_min":0,"x_max":0,"o":"m 399 -14 b 747 367 601 -14 747 146 b 399 744 747 586 601 744 b 51 367 197 744 51 586 b 399 -14 51 146 197 -14 z m 399 71 b 150 367 257 71 150 185 b 399 660 150 546 257 660 b 649 367 542 660 649 546 b 399 71 649 185 542 71 z "},"ó":{"ha":799,"x_min":0,"x_max":0,"o":"m 456 817 l 603 1003 l 488 1003 l 347 817 z m 399 -14 b 747 367 601 -14 747 146 b 399 744 747 586 601 744 b 51 367 197 744 51 586 b 399 -14 51 146 197 -14 z m 399 71 b 150 367 257 71 150 185 b 399 660 150 546 257 660 b 649 367 542 660 649 546 b 399 71 649 185 542 71 z "},"ô":{"ha":799,"x_min":0,"x_max":0,"o":"m 274 817 l 399 942 l 526 817 l 638 817 l 453 1003 l 346 1003 l 163 817 z m 399 -14 b 747 367 601 -14 747 146 b 399 744 747 586 601 744 b 51 367 197 744 51 586 b 399 -14 51 146 197 -14 z m 399 71 b 150 367 257 71 150 185 b 399 660 150 546 257 660 b 649 367 542 660 649 546 b 399 71 649 185 542 71 z "},"ö":{"ha":799,"x_min":0,"x_max":0,"o":"m 601 903 b 525 979 601 949 569 979 b 446 903 479 979 446 949 b 525 828 446 861 479 828 b 601 903 569 828 601 861 z m 353 903 b 275 979 353 949 321 979 b 196 903 229 979 196 949 b 275 828 196 861 229 828 b 353 903 321 828 353 861 z m 399 -14 b 747 367 601 -14 747 146 b 399 744 747 586 601 744 b 51 367 197 744 51 586 b 399 -14 51 146 197 -14 z m 399 71 b 150 367 257 71 150 185 b 399 660 150 546 257 660 b 649 367 542 660 649 546 b 399 71 649 185 542 71 z "},"ò":{"ha":799,"x_min":0,"x_max":0,"o":"m 451 817 l 311 1003 l 194 1003 l 343 817 z m 399 -14 b 747 367 601 -14 747 146 b 399 744 747 586 601 744 b 51 367 197 744 51 586 b 399 -14 51 146 197 -14 z m 399 71 b 150 367 257 71 150 185 b 399 660 150 546 257 660 b 649 367 542 660 649 546 b 399 71 649 185 542 71 z "},"ő":{"ha":799,"x_min":0,"x_max":0,"o":"m 556 817 l 703 1003 l 593 1003 l 450 817 z m 314 817 l 456 1003 l 347 1003 l 208 817 z m 399 -14 b 747 367 601 -14 747 146 b 399 744 747 586 601 744 b 51 367 197 744 51 586 b 399 -14 51 146 197 -14 z m 399 71 b 150 367 257 71 150 185 b 399 660 150 546 257 660 b 649 367 542 660 649 546 b 399 71 649 185 542 71 z "},"ō":{"ha":799,"x_min":0,"x_max":0,"o":"m 594 836 l 594 906 l 203 906 l 203 836 z m 399 -14 b 747 367 601 -14 747 146 b 399 744 747 586 601 744 b 51 367 197 744 51 586 b 399 -14 51 146 197 -14 z m 399 71 b 150 367 257 71 150 185 b 399 660 150 546 257 660 b 649 367 542 660 649 546 b 399 71 649 185 542 71 z "},"ø":{"ha":799,"x_min":0,"x_max":0,"o":"m 149 0 l 192 54 b 399 -14 249 11 319 -14 b 747 367 601 -14 747 146 b 654 632 747 474 713 565 l 733 732 l 650 732 l 606 676 b 399 744 549 719 478 744 b 51 367 197 744 51 586 b 144 99 51 260 86 167 l 65 0 z m 150 367 b 399 660 150 546 257 660 b 550 607 457 660 508 642 l 204 174 b 150 367 169 222 150 289 z m 399 71 b 247 124 342 71 289 90 l 594 558 b 649 367 629 510 649 444 b 399 71 649 185 542 71 z "},"õ":{"ha":799,"x_min":0,"x_max":0,"o":"m 238 815 b 301 924 238 888 261 924 b 497 824 363 924 406 824 b 621 1006 579 824 631 894 l 554 1006 b 490 897 554 933 532 897 b 294 997 429 897 386 997 b 172 815 213 997 161 928 z m 399 -14 b 747 367 601 -14 747 146 b 399 744 747 586 601 744 b 51 367 197 744 51 586 b 399 -14 51 146 197 -14 z m 399 71 b 150 367 257 71 150 185 b 399 660 150 546 257 660 b 649 367 542 660 649 546 b 399 71 649 185 542 71 z "},"œ":{"ha":1321,"x_min":0,"x_max":0,"o":"m 51 367 b 386 -14 51 140 194 -14 b 671 182 514 -14 621 60 b 954 -14 719 54 822 -14 b 1267 247 1115 -14 1235 88 l 1171 247 b 954 63 1151 133 1074 63 b 721 343 814 63 725 161 l 1265 343 b 947 746 1279 589 1153 746 b 672 550 824 746 721 672 b 386 744 621 669 514 744 b 51 367 194 744 51 592 z m 947 671 b 1167 410 1076 671 1160 581 l 724 410 b 947 671 729 576 825 671 z m 150 367 b 388 660 150 547 250 660 b 625 367 526 660 625 547 b 388 71 625 183 526 71 b 150 367 249 71 150 185 z "},"p":{"ha":828,"x_min":0,"x_max":0,"o":"m 776 367 b 456 746 776 590 650 746 b 196 574 343 746 246 682 l 196 732 l 106 732 l 106 -268 l 203 -268 l 203 150 b 456 -14 253 46 346 -14 b 776 367 650 -14 776 140 z m 678 367 b 439 71 678 179 582 71 b 201 367 300 71 201 185 b 439 661 201 553 303 661 b 678 367 582 661 678 551 z "},"þ":{"ha":828,"x_min":0,"x_max":0,"o":"m 776 367 b 456 746 776 590 650 746 b 203 579 346 746 251 683 l 203 997 l 106 997 l 106 -268 l 203 -268 l 203 150 b 456 -14 253 46 346 -14 b 776 367 650 -14 776 140 z m 678 367 b 439 71 678 179 582 71 b 201 367 300 71 201 185 b 439 661 201 553 303 661 b 678 367 582 661 678 551 z "},"q":{"ha":828,"x_min":0,"x_max":0,"o":"m 51 367 b 374 -14 51 140 176 -14 b 625 150 483 -14 575 46 l 625 -268 l 722 -268 l 722 732 l 632 732 l 632 571 b 374 746 582 681 488 746 b 51 367 176 746 51 590 z m 150 367 b 388 661 150 551 244 661 b 626 367 526 661 626 553 b 388 71 626 185 529 71 b 150 367 244 71 150 179 z "},"r":{"ha":489,"x_min":0,"x_max":0,"o":"m 203 392 b 475 642 203 551 321 647 l 475 743 b 196 565 354 743 246 674 l 196 732 l 106 732 l 106 0 l 203 0 z "},"ŕ":{"ha":489,"x_min":0,"x_max":0,"o":"m 360 817 l 507 1003 l 390 1003 l 250 817 z m 203 392 b 475 642 203 551 321 647 l 475 743 b 196 565 354 743 246 674 l 196 732 l 106 732 l 106 0 l 203 0 z "},"ř":{"ha":489,"x_min":0,"x_max":0,"o":"m 357 817 l 540 1003 l 431 1003 l 303 878 l 176 1003 l 65 1003 l 250 817 z m 203 392 b 475 642 203 551 321 647 l 475 743 b 196 565 354 743 246 674 l 196 732 l 106 732 l 106 0 l 203 0 z "},"ŗ":{"ha":489,"x_min":0,"x_max":0,"o":"m 203 392 b 475 642 203 551 321 647 l 475 743 b 196 565 354 743 246 674 l 196 732 l 106 732 l 106 0 l 203 0 z m 233 -161 b 151 -78 233 -114 201 -78 b 83 -135 113 -78 83 -99 b 171 -182 83 -175 125 -199 b 65 -246 167 -221 128 -246 l 65 -292 b 233 -161 167 -299 233 -232 z "},"s":{"ha":717,"x_min":0,"x_max":0,"o":"m 653 204 b 442 397 653 308 588 369 l 332 418 b 179 546 224 439 179 474 b 353 671 179 622 250 671 b 551 510 468 671 542 611 l 643 510 b 353 746 632 656 521 746 b 85 538 193 746 85 660 b 297 338 85 432 158 364 l 403 317 b 556 189 514 294 556 261 b 364 60 556 106 483 60 b 150 229 239 60 157 125 l 57 229 b 364 -14 71 78 182 -14 b 653 204 544 -14 653 69 z "},"ś":{"ha":717,"x_min":0,"x_max":0,"o":"m 407 817 l 556 1003 l 439 1003 l 299 817 z m 653 204 b 442 397 653 308 588 369 l 332 418 b 179 546 224 439 179 474 b 353 671 179 622 250 671 b 551 510 468 671 542 611 l 643 510 b 353 746 632 656 521 746 b 85 538 193 746 85 660 b 297 338 85 432 158 364 l 403 317 b 556 189 514 294 556 261 b 364 60 556 106 483 60 b 150 229 239 60 157 125 l 57 229 b 364 -14 71 78 182 -14 b 653 204 544 -14 653 69 z "},"š":{"ha":717,"x_min":0,"x_max":0,"o":"m 404 817 l 589 1003 l 478 1003 l 351 878 l 225 1003 l 114 1003 l 297 817 z m 653 204 b 442 397 653 308 588 369 l 332 418 b 179 546 224 439 179 474 b 353 671 179 622 250 671 b 551 510 468 671 542 611 l 643 510 b 353 746 632 656 521 746 b 85 538 193 746 85 660 b 297 338 85 432 158 364 l 403 317 b 556 189 514 294 556 261 b 364 60 556 106 483 60 b 150 229 239 60 157 125 l 57 229 b 364 -14 71 78 182 -14 b 653 204 544 -14 653 69 z "},"ş":{"ha":717,"x_min":0,"x_max":0,"o":"m 508 -164 b 379 -51 508 -101 454 -56 l 392 -12 b 653 204 556 -4 653 76 b 442 397 653 308 588 369 l 332 418 b 179 546 224 439 179 474 b 353 671 179 622 250 671 b 551 510 468 671 542 611 l 643 510 b 353 746 632 656 521 746 b 85 538 193 746 85 660 b 297 338 85 432 158 364 l 403 317 b 556 189 514 294 556 261 b 364 60 556 106 483 60 b 150 229 239 60 157 125 l 57 229 b 335 -12 69 86 169 -4 l 311 -86 b 433 -161 375 -79 433 -100 b 365 -221 433 -194 407 -221 b 281 -157 321 -221 289 -200 l 213 -157 b 367 -275 224 -233 285 -275 b 508 -164 447 -275 508 -231 z "},"ș":{"ha":717,"x_min":0,"x_max":0,"o":"m 653 204 b 442 397 653 308 588 369 l 332 418 b 179 546 224 439 179 474 b 353 671 179 622 250 671 b 551 510 468 671 542 611 l 643 510 b 353 746 632 656 521 746 b 85 538 193 746 85 660 b 297 338 85 432 158 364 l 403 317 b 556 189 514 294 556 261 b 364 60 556 106 483 60 b 150 229 239 60 157 125 l 57 229 b 364 -14 71 78 182 -14 b 653 204 544 -14 653 69 z m 451 -161 b 369 -78 451 -114 419 -78 b 301 -135 331 -78 301 -99 b 389 -182 301 -175 343 -199 b 283 -246 385 -221 346 -246 l 283 -292 b 451 -161 385 -299 451 -232 z "},"ß":{"ha":833,"x_min":0,"x_max":0,"o":"m 781 278 b 569 524 781 401 706 492 b 736 760 669 561 736 651 b 457 1010 736 904 626 1010 b 171 732 289 1010 176 892 l -3 732 l -3 650 l 169 650 l 169 0 l 267 0 l 267 724 b 456 932 267 851 340 932 b 638 756 567 932 638 864 b 435 554 638 636 556 554 l 390 554 l 390 475 l 439 475 b 683 274 588 475 683 397 b 471 64 683 147 600 64 b 388 74 442 64 411 68 l 388 -6 b 478 -14 408 -11 442 -14 b 781 278 661 -14 781 101 z "},"t":{"ha":531,"x_min":0,"x_max":0,"o":"m 482 93 b 396 75 451 81 426 75 b 260 228 315 75 260 114 l 260 650 l 489 650 l 489 732 l 260 732 l 260 949 l 163 949 l 163 732 l -10 732 l -10 650 l 163 650 l 163 207 b 376 -14 163 49 256 -14 b 482 7 413 -14 444 -8 z "},"ť":{"ha":531,"x_min":0,"x_max":0,"o":"m 397 793 l 421 997 l 333 997 l 333 793 z m 482 93 b 396 75 451 81 426 75 b 260 228 315 75 260 114 l 260 650 l 489 650 l 489 732 l 260 732 l 260 949 l 163 949 l 163 732 l -10 732 l -10 650 l 163 650 l 163 207 b 376 -14 163 49 256 -14 b 482 7 413 -14 444 -8 z "},"ţ":{"ha":531,"x_min":0,"x_max":0,"o":"m 456 -164 b 326 -51 456 -101 401 -56 l 340 -12 b 376 -14 351 -14 364 -14 b 482 7 413 -14 444 -8 l 482 93 b 396 75 451 81 426 75 b 260 228 315 75 260 114 l 260 650 l 489 650 l 489 732 l 260 732 l 260 949 l 163 949 l 163 732 l -10 732 l -10 650 l 163 650 l 163 207 b 286 0 163 92 213 26 l 258 -86 b 381 -161 322 -79 381 -100 b 313 -221 381 -194 354 -221 b 228 -157 268 -221 236 -200 l 160 -157 b 314 -275 171 -233 232 -275 b 456 -164 394 -275 456 -231 z "},"ț":{"ha":531,"x_min":0,"x_max":0,"o":"m 482 93 b 396 75 451 81 426 75 b 260 228 315 75 260 114 l 260 650 l 489 650 l 489 732 l 260 732 l 260 949 l 163 949 l 163 732 l -10 732 l -10 650 l 163 650 l 163 207 b 376 -14 163 49 256 -14 b 482 7 413 -14 444 -8 z m 399 -161 b 317 -78 399 -114 367 -78 b 249 -135 278 -78 249 -99 b 336 -182 249 -175 290 -199 b 231 -246 332 -221 293 -246 l 231 -292 b 399 -161 332 -299 399 -232 z "},"u":{"ha":775,"x_min":0,"x_max":0,"o":"m 574 296 b 372 71 574 165 489 71 b 196 276 269 71 196 128 l 196 732 l 99 732 l 99 256 b 346 -14 99 71 197 -14 b 579 132 453 -14 542 47 l 579 0 l 669 0 l 669 732 l 574 732 z "},"ú":{"ha":775,"x_min":0,"x_max":0,"o":"m 444 817 l 592 1003 l 475 1003 l 336 817 z m 574 296 b 372 71 574 165 489 71 b 196 276 269 71 196 128 l 196 732 l 99 732 l 99 256 b 346 -14 99 71 197 -14 b 579 132 453 -14 542 47 l 579 0 l 669 0 l 669 732 l 574 732 z "},"û":{"ha":775,"x_min":0,"x_max":0,"o":"m 263 817 l 388 942 l 515 817 l 626 817 l 442 1003 l 335 1003 l 151 817 z m 574 296 b 372 71 574 165 489 71 b 196 276 269 71 196 128 l 196 732 l 99 732 l 99 256 b 346 -14 99 71 197 -14 b 579 132 453 -14 542 47 l 579 0 l 669 0 l 669 732 l 574 732 z "},"ü":{"ha":775,"x_min":0,"x_max":0,"o":"m 590 903 b 513 979 590 949 558 979 b 433 903 467 979 433 949 b 513 828 433 861 467 828 b 590 903 558 828 590 861 z m 342 903 b 264 979 342 949 310 979 b 185 903 218 979 185 949 b 264 828 185 861 218 828 b 342 903 310 828 342 861 z m 574 296 b 372 71 574 165 489 71 b 196 276 269 71 196 128 l 196 732 l 99 732 l 99 256 b 346 -14 99 71 197 -14 b 579 132 453 -14 542 47 l 579 0 l 669 0 l 669 732 l 574 732 z "},"ù":{"ha":775,"x_min":0,"x_max":0,"o":"m 440 817 l 300 1003 l 183 1003 l 332 817 z m 574 296 b 372 71 574 165 489 71 b 196 276 269 71 196 128 l 196 732 l 99 732 l 99 256 b 346 -14 99 71 197 -14 b 579 132 453 -14 542 47 l 579 0 l 669 0 l 669 732 l 574 732 z "},"ű":{"ha":775,"x_min":0,"x_max":0,"o":"m 544 817 l 692 1003 l 582 1003 l 439 817 z m 303 817 l 444 1003 l 336 1003 l 197 817 z m 574 296 b 372 71 574 165 489 71 b 196 276 269 71 196 128 l 196 732 l 99 732 l 99 256 b 346 -14 99 71 197 -14 b 579 132 453 -14 542 47 l 579 0 l 669 0 l 669 732 l 574 732 z "},"ū":{"ha":775,"x_min":0,"x_max":0,"o":"m 583 836 l 583 906 l 192 906 l 192 836 z m 574 296 b 372 71 574 165 489 71 b 196 276 269 71 196 128 l 196 732 l 99 732 l 99 256 b 346 -14 99 71 197 -14 b 579 132 453 -14 542 47 l 579 0 l 669 0 l 669 732 l 574 732 z "},"ų":{"ha":775,"x_min":0,"x_max":0,"o":"m 574 296 b 372 71 574 165 489 71 b 196 276 269 71 196 128 l 196 732 l 99 732 l 99 256 b 346 -14 99 71 197 -14 b 579 132 453 -14 542 47 l 579 26 b 458 -150 511 -24 458 -78 b 593 -275 458 -228 517 -275 b 671 -261 618 -275 643 -271 l 671 -192 b 614 -204 650 -200 631 -204 b 539 -128 568 -204 539 -174 b 619 0 539 -71 575 -31 l 669 0 l 669 732 l 574 732 z "},"ů":{"ha":775,"x_min":0,"x_max":0,"o":"m 388 811 b 547 958 479 811 547 878 b 388 1106 547 1039 479 1106 b 229 958 297 1106 229 1039 b 388 811 229 878 297 811 z m 388 868 b 296 958 338 868 296 899 b 388 1047 296 1017 338 1047 b 481 958 439 1047 481 1017 b 388 868 481 899 439 868 z m 574 296 b 372 71 574 165 489 71 b 196 276 269 71 196 128 l 196 732 l 99 732 l 99 256 b 346 -14 99 71 197 -14 b 579 132 453 -14 542 47 l 579 0 l 669 0 l 669 732 l 574 732 z "},"v":{"ha":676,"x_min":0,"x_max":0,"o":"m 669 732 l 569 732 l 340 114 l 111 732 l 7 732 l 286 0 l 388 0 z "},"w":{"ha":1049,"x_min":0,"x_max":0,"o":"m 715 0 l 813 0 l 1028 732 l 931 732 l 761 136 l 572 732 l 476 732 l 286 138 l 117 732 l 21 732 l 235 0 l 333 0 l 524 603 z "},"ẃ":{"ha":1049,"x_min":0,"x_max":0,"o":"m 581 817 l 728 1003 l 613 1003 l 472 817 z m 715 0 l 813 0 l 1028 732 l 931 732 l 761 136 l 572 732 l 476 732 l 286 138 l 117 732 l 21 732 l 235 0 l 333 0 l 524 603 z "},"ŵ":{"ha":1049,"x_min":0,"x_max":0,"o":"m 399 817 l 524 942 l 651 817 l 763 817 l 578 1003 l 471 1003 l 288 817 z m 715 0 l 813 0 l 1028 732 l 931 732 l 761 136 l 572 732 l 476 732 l 286 138 l 117 732 l 21 732 l 235 0 l 333 0 l 524 603 z "},"ẅ":{"ha":1049,"x_min":0,"x_max":0,"o":"m 726 903 b 650 979 726 949 694 979 b 571 903 604 979 571 949 b 650 828 571 861 604 828 b 726 903 694 828 726 861 z m 478 903 b 400 979 478 949 446 979 b 321 903 354 979 321 949 b 400 828 321 861 354 828 b 478 903 446 828 478 861 z m 715 0 l 813 0 l 1028 732 l 931 732 l 761 136 l 572 732 l 476 732 l 286 138 l 117 732 l 21 732 l 235 0 l 333 0 l 524 603 z "},"ẁ":{"ha":1049,"x_min":0,"x_max":0,"o":"m 576 817 l 436 1003 l 319 1003 l 468 817 z m 715 0 l 813 0 l 1028 732 l 931 732 l 761 136 l 572 732 l 476 732 l 286 138 l 117 732 l 21 732 l 235 0 l 333 0 l 524 603 z "},"x":{"ha":693,"x_min":0,"x_max":0,"o":"m 124 0 l 344 314 l 568 0 l 679 0 l 413 372 l 663 732 l 558 732 l 350 436 l 143 732 l 32 732 l 285 375 l 15 0 z "},"y":{"ha":676,"x_min":0,"x_max":0,"o":"m 669 732 l 571 732 l 347 126 l 111 732 l 7 732 l 297 10 l 190 -268 l 294 -268 z "},"ý":{"ha":676,"x_min":0,"x_max":0,"o":"m 394 817 l 542 1003 l 426 1003 l 286 817 z m 669 732 l 571 732 l 347 126 l 111 732 l 7 732 l 297 10 l 190 -268 l 294 -268 z "},"ŷ":{"ha":676,"x_min":0,"x_max":0,"o":"m 213 817 l 339 942 l 465 817 l 576 817 l 392 1003 l 285 1003 l 101 817 z m 669 732 l 571 732 l 347 126 l 111 732 l 7 732 l 297 10 l 190 -268 l 294 -268 z "},"ÿ":{"ha":676,"x_min":0,"x_max":0,"o":"m 542 903 b 464 979 542 949 508 979 b 385 903 418 979 385 949 b 464 828 385 861 418 828 b 542 903 508 828 542 861 z m 292 903 b 214 979 292 949 260 979 b 136 903 168 979 136 949 b 214 828 136 861 168 828 b 292 903 260 828 292 861 z m 669 732 l 571 732 l 347 126 l 111 732 l 7 732 l 297 10 l 190 -268 l 294 -268 z "},"ỳ":{"ha":676,"x_min":0,"x_max":0,"o":"m 390 817 l 250 1003 l 133 1003 l 282 817 z m 669 732 l 571 732 l 347 126 l 111 732 l 7 732 l 297 10 l 190 -268 l 294 -268 z "},"z":{"ha":664,"x_min":0,"x_max":0,"o":"m 626 0 l 626 83 l 163 83 l 610 657 l 610 732 l 54 732 l 54 649 l 490 649 l 40 71 l 40 0 z "},"ź":{"ha":664,"x_min":0,"x_max":0,"o":"m 390 817 l 538 1003 l 421 1003 l 282 817 z m 626 0 l 626 83 l 163 83 l 610 657 l 610 732 l 54 732 l 54 649 l 490 649 l 40 71 l 40 0 z "},"ž":{"ha":664,"x_min":0,"x_max":0,"o":"m 388 817 l 572 1003 l 461 1003 l 333 878 l 208 1003 l 97 1003 l 281 817 z m 626 0 l 626 83 l 163 83 l 610 657 l 610 732 l 54 732 l 54 649 l 490 649 l 40 71 l 40 0 z "},"ż":{"ha":664,"x_min":0,"x_max":0,"o":"m 413 901 b 335 974 413 943 381 974 b 256 901 289 974 256 943 b 335 828 256 858 289 828 b 413 901 381 828 413 858 z m 626 0 l 626 83 l 163 83 l 610 657 l 610 732 l 54 732 l 54 649 l 490 649 l 40 71 l 40 0 z "},"ﬁ":{"ha":797,"x_min":0,"x_max":0,"o":"m 267 0 l 267 650 l 482 650 l 482 732 l 267 732 l 267 799 b 388 924 267 885 310 924 b 458 913 413 924 435 922 l 458 993 b 371 1008 433 1003 404 1008 b 169 799 243 1008 169 933 l 169 732 l -3 732 l -3 650 l 169 650 l 169 0 z m 721 901 b 643 974 721 943 689 974 b 564 901 596 974 564 943 b 643 828 564 858 596 828 b 721 901 689 828 721 858 z m 692 0 l 692 732 l 594 732 l 594 0 z "},"ﬂ":{"ha":797,"x_min":0,"x_max":0,"o":"m 267 0 l 267 650 l 482 650 l 482 732 l 267 732 l 267 799 b 388 924 267 885 310 924 b 458 913 413 924 435 922 l 458 993 b 371 1008 433 1003 404 1008 b 169 799 243 1008 169 933 l 169 732 l -3 732 l -3 650 l 169 650 l 169 0 z m 692 0 l 692 997 l 594 997 l 594 0 z "},"ª":{"ha":594,"x_min":0,"x_max":0,"o":"m 447 354 l 521 354 l 521 732 b 297 947 521 867 438 947 b 64 732 163 947 67 860 l 143 732 b 297 879 144 825 203 879 b 438 731 386 879 438 824 l 438 683 b 317 690 388 688 356 690 b 44 517 138 690 44 631 b 249 343 44 411 125 343 b 447 456 342 343 413 385 z m 128 519 b 322 633 128 596 192 633 b 438 626 361 633 399 632 l 438 576 b 264 407 438 474 369 407 b 128 519 182 407 128 451 z "},"º":{"ha":676,"x_min":0,"x_max":0,"o":"m 338 343 b 624 646 503 343 624 471 b 338 947 624 819 503 947 b 51 646 171 947 51 819 b 338 343 51 471 171 343 z m 338 419 b 140 646 225 419 140 507 b 338 871 140 783 226 871 b 535 646 450 871 535 783 b 338 419 535 507 450 419 z "},"Δ":{"ha":949,"x_min":0,"x_max":0,"o":"m 917 0 l 529 997 l 421 997 l 32 0 z m 472 890 l 782 85 l 161 85 z "},"Ω":{"ha":968,"x_min":0,"x_max":0,"o":"m 438 0 l 438 228 b 144 576 256 268 144 393 b 485 924 144 764 274 924 b 826 576 696 924 826 764 b 532 228 826 393 715 268 l 532 0 l 921 0 l 921 89 l 617 85 l 617 176 b 928 585 794 233 928 369 b 485 1011 928 824 747 1011 b 40 585 222 1011 40 824 b 353 176 40 369 174 232 l 353 85 l 47 89 l 47 0 z "},"μ":{"ha":786,"x_min":0,"x_max":0,"o":"m 382 -14 b 586 118 476 -14 554 40 l 586 0 l 681 0 l 681 732 l 585 732 l 585 292 b 386 71 585 164 511 71 b 203 285 278 71 203 136 l 203 732 l 106 732 l 106 -268 l 203 -268 l 194 78 b 382 -14 232 15 303 -14 z "},"π":{"ha":796,"x_min":0,"x_max":0,"o":"m 663 -14 b 749 1 690 -14 717 -10 l 749 90 b 686 78 726 81 710 78 b 572 211 619 78 572 111 l 572 650 l 754 650 l 754 732 l -10 732 l -10 650 l 183 650 l 115 0 l 210 0 l 271 650 l 475 650 l 475 194 b 663 -14 475 36 553 -14 z "},"₀":{"ha":531,"x_min":0,"x_max":0,"o":"m 486 -1 b 265 290 486 186 407 290 b 44 -1 125 290 44 186 b 265 -290 44 -187 122 -290 b 486 -1 408 -290 486 -187 z m 118 -1 b 265 226 118 149 169 226 b 413 -1 363 226 413 147 b 265 -226 413 -149 363 -226 b 118 -1 168 -226 118 -149 z "},"₁":{"ha":307,"x_min":0,"x_max":0,"o":"m 207 -282 l 207 282 l 17 282 l 17 221 l 136 221 l 136 -282 z "},"₂":{"ha":468,"x_min":0,"x_max":0,"o":"m 426 -219 l 157 -219 l 296 -74 b 419 131 372 3 419 56 b 231 290 419 218 344 290 b 35 115 119 290 35 219 l 103 115 b 226 226 103 182 151 226 b 346 124 299 226 346 181 b 243 -44 346 63 306 18 l 49 -242 l 49 -282 l 426 -282 z "},"₃":{"ha":528,"x_min":0,"x_max":0,"o":"m 472 -124 b 346 13 472 -57 424 -8 b 444 140 408 39 444 85 b 258 290 444 226 371 290 b 68 132 150 290 71 221 l 136 132 b 256 231 140 190 185 231 b 371 136 325 231 371 192 b 246 38 371 78 319 38 l 188 38 l 188 -22 l 249 -22 b 399 -125 339 -22 399 -61 b 263 -229 399 -189 346 -229 b 121 -124 182 -229 125 -189 l 51 -124 b 261 -289 54 -224 139 -289 b 472 -124 386 -289 472 -222 z "},"₄":{"ha":515,"x_min":0,"x_max":0,"o":"m 478 -153 l 478 -90 l 396 -90 l 396 282 l 343 282 l 26 -103 l 26 -153 l 325 -153 l 325 -282 l 396 -282 l 396 -153 z m 111 -90 l 325 172 l 325 -90 z "},"₅":{"ha":499,"x_min":0,"x_max":0,"o":"m 461 -104 b 257 78 461 -7 386 78 b 133 35 213 78 171 64 l 167 219 l 426 219 l 426 282 l 115 282 l 61 -33 l 117 -50 b 247 15 146 -7 190 15 b 389 -104 333 15 389 -39 b 247 -226 389 -176 339 -226 b 113 -122 172 -226 119 -186 l 42 -122 b 247 -290 46 -221 132 -290 b 461 -104 382 -290 461 -207 z "},"₆":{"ha":519,"x_min":0,"x_max":0,"o":"m 476 -101 b 272 85 476 14 385 85 b 208 74 251 85 231 81 l 389 282 l 308 282 l 124 69 b 43 -104 79 17 43 -28 b 260 -289 43 -207 135 -289 b 476 -101 381 -289 476 -210 z m 403 -103 b 260 -228 403 -176 342 -228 b 117 -103 179 -228 117 -176 b 260 25 117 -19 179 25 b 403 -103 342 25 403 -25 z "},"₇":{"ha":435,"x_min":0,"x_max":0,"o":"m 419 240 l 419 282 l 15 282 l 15 219 l 342 219 l 100 -282 l 176 -282 z "},"₈":{"ha":546,"x_min":0,"x_max":0,"o":"m 492 -126 b 371 11 492 -56 439 -8 b 465 136 424 32 465 78 b 274 290 465 226 382 290 b 81 136 163 290 81 226 b 175 11 81 76 121 33 b 54 -126 107 -8 54 -56 b 274 -289 54 -224 144 -289 b 492 -126 401 -289 492 -224 z m 154 133 b 274 231 154 194 203 231 b 393 133 343 231 393 194 b 274 40 393 75 343 40 b 154 133 203 40 154 75 z m 128 -124 b 274 -19 128 -58 188 -19 b 418 -124 357 -19 418 -58 b 274 -229 418 -190 357 -229 b 128 -124 188 -229 128 -190 z "},"₉":{"ha":521,"x_min":0,"x_max":0,"o":"m 44 103 b 249 -83 44 -14 136 -83 b 313 -74 269 -83 290 -81 l 132 -282 l 213 -282 l 397 -68 b 478 104 444 -14 478 29 b 261 290 478 207 386 290 b 44 103 139 290 44 211 z m 118 104 b 260 229 118 176 178 229 b 404 103 342 229 404 176 b 260 -24 404 21 342 -24 b 118 104 178 -24 118 26 z "},"⁰":{"ha":531,"x_min":0,"x_max":0,"o":"m 486 996 b 265 1288 486 1183 407 1288 b 44 996 125 1288 44 1183 b 265 707 44 810 122 707 b 486 996 408 707 486 810 z m 118 996 b 265 1224 118 1146 169 1224 b 413 996 363 1224 413 1144 b 265 771 413 849 363 771 b 118 996 168 771 118 849 z "},"⁴":{"ha":515,"x_min":0,"x_max":0,"o":"m 478 844 l 478 907 l 396 907 l 396 1279 l 343 1279 l 26 894 l 26 844 l 325 844 l 325 715 l 396 715 l 396 844 z m 111 907 l 325 1169 l 325 907 z "},"⁵":{"ha":499,"x_min":0,"x_max":0,"o":"m 461 893 b 257 1075 461 990 386 1075 b 133 1032 213 1075 171 1061 l 167 1217 l 426 1217 l 426 1279 l 115 1279 l 61 964 l 117 947 b 247 1013 146 990 190 1013 b 389 893 333 1013 389 958 b 247 771 389 821 339 771 b 113 875 172 771 119 811 l 42 875 b 247 707 46 776 132 707 b 461 893 382 707 461 790 z "},"⁶":{"ha":519,"x_min":0,"x_max":0,"o":"m 476 896 b 272 1082 476 1011 385 1082 b 208 1071 251 1082 231 1078 l 389 1279 l 308 1279 l 124 1067 b 43 893 79 1014 43 969 b 260 708 43 790 135 708 b 476 896 381 708 476 788 z m 403 894 b 260 769 403 821 342 769 b 117 894 179 769 117 821 b 260 1022 117 978 179 1022 b 403 894 342 1022 403 972 z "},"⁷":{"ha":435,"x_min":0,"x_max":0,"o":"m 419 1238 l 419 1279 l 15 1279 l 15 1217 l 342 1217 l 100 715 l 176 715 z "},"⁸":{"ha":546,"x_min":0,"x_max":0,"o":"m 492 871 b 371 1008 492 942 439 989 b 465 1133 424 1029 465 1075 b 274 1288 465 1224 382 1288 b 81 1133 163 1288 81 1224 b 175 1008 81 1074 121 1031 b 54 871 107 989 54 942 b 274 708 54 774 144 708 b 492 871 401 708 492 774 z m 154 1131 b 274 1228 154 1192 203 1228 b 393 1131 343 1228 393 1192 b 274 1038 393 1072 343 1038 b 154 1131 203 1038 154 1072 z m 128 874 b 274 978 128 939 188 978 b 418 874 357 978 418 939 b 274 768 418 807 357 768 b 128 874 188 768 128 807 z "},"⁹":{"ha":521,"x_min":0,"x_max":0,"o":"m 44 1100 b 249 914 44 983 136 914 b 313 924 269 914 290 917 l 132 715 l 213 715 l 397 929 b 478 1101 444 983 478 1026 b 261 1288 478 1204 386 1288 b 44 1100 139 1288 44 1208 z m 118 1101 b 260 1226 118 1174 178 1226 b 404 1100 342 1226 404 1174 b 260 974 404 1018 342 974 b 118 1101 178 974 118 1024 z "},"¹":{"ha":307,"x_min":0,"x_max":0,"o":"m 207 715 l 207 1279 l 17 1279 l 17 1218 l 136 1218 l 136 715 z "},"²":{"ha":468,"x_min":0,"x_max":0,"o":"m 426 778 l 157 778 l 296 924 b 419 1128 372 1000 419 1053 b 231 1288 419 1215 344 1288 b 35 1113 119 1288 35 1217 l 103 1113 b 226 1224 103 1179 151 1224 b 346 1121 299 1224 346 1178 b 243 953 346 1060 306 1015 l 49 756 l 49 715 l 426 715 z "},"³":{"ha":528,"x_min":0,"x_max":0,"o":"m 472 875 b 346 1011 472 942 424 990 b 444 1139 408 1038 444 1083 b 258 1289 444 1225 371 1289 b 68 1131 150 1289 71 1219 l 136 1131 b 256 1229 140 1189 185 1229 b 371 1135 325 1229 371 1190 b 246 1036 371 1076 319 1036 l 188 1036 l 188 976 l 249 976 b 399 874 339 976 399 938 b 263 769 399 810 346 769 b 121 875 182 769 125 810 l 51 875 b 261 710 54 775 139 710 b 472 875 386 710 472 776 z "},"⁄":{"ha":231,"x_min":0,"x_max":0,"o":"m -107 0 l 422 939 l 340 939 l -187 0 z "},"½":{"ha":1006,"x_min":0,"x_max":0,"o":"m 207 375 l 207 939 l 17 939 l 17 878 l 136 878 l 136 375 z m 200 0 l 729 939 l 646 939 l 118 0 z m 964 63 l 694 63 l 833 208 b 958 413 910 285 958 338 b 768 572 958 500 882 572 b 572 397 657 572 572 501 l 640 397 b 764 508 640 464 690 508 b 883 406 836 508 883 463 b 781 238 883 344 843 300 l 586 40 l 586 0 l 964 0 z "},"¼":{"ha":933,"x_min":0,"x_max":0,"o":"m 207 375 l 207 939 l 17 939 l 17 878 l 136 878 l 136 375 z m 200 0 l 729 939 l 646 939 l 118 0 z m 890 129 l 890 192 l 808 192 l 808 564 l 757 564 l 439 179 l 439 129 l 738 129 l 738 0 l 808 0 l 808 129 z m 524 192 l 738 454 l 738 192 z "},"¾":{"ha":1164,"x_min":0,"x_max":0,"o":"m 472 535 b 346 671 472 601 424 650 b 444 799 408 697 444 743 b 258 949 444 885 371 949 b 68 790 150 949 71 879 l 136 790 b 256 889 140 849 185 889 b 371 794 325 889 371 850 b 246 696 371 736 319 696 l 188 696 l 188 636 l 249 636 b 399 533 339 636 399 597 b 263 429 399 469 346 429 b 121 535 182 429 125 469 l 51 535 b 261 369 54 435 139 369 b 472 535 386 369 472 436 z m 421 0 l 950 939 l 867 939 l 339 0 z m 1121 129 l 1121 192 l 1039 192 l 1039 564 l 988 564 l 671 179 l 671 129 l 968 129 l 968 0 l 1039 0 l 1039 129 z m 754 192 l 968 454 l 968 192 z "},"*":{"ha":694,"x_min":0,"x_max":0,"o":"m 347 657 l 500 468 l 557 514 l 406 699 l 635 767 l 613 835 l 383 765 l 386 997 l 308 997 l 311 765 l 82 835 l 60 767 l 289 699 l 138 514 l 194 468 z "},"\\":{"ha":671,"x_min":0,"x_max":0,"o":"m 692 -268 l 75 997 l -19 997 l 596 -268 z "},"·":{"ha":358,"x_min":0,"x_max":0,"o":"m 267 371 b 179 460 267 424 231 460 b 92 371 129 460 92 424 b 179 283 92 319 129 283 b 267 371 231 283 267 319 z "},"•":{"ha":694,"x_min":0,"x_max":0,"o":"m 542 365 b 347 563 542 481 460 563 b 153 365 236 563 153 481 b 347 174 153 254 236 174 b 542 365 460 174 542 254 z "},":":{"ha":358,"x_min":0,"x_max":0,"o":"m 267 646 b 179 735 267 697 231 735 b 92 646 129 735 92 697 b 179 558 92 594 129 558 b 267 646 231 558 267 594 z m 267 81 b 179 169 267 133 231 169 b 92 81 129 169 92 133 b 179 -7 92 31 129 -7 b 267 81 231 -7 267 31 z "},",":{"ha":358,"x_min":0,"x_max":0,"o":"m 267 46 b 169 169 267 119 235 169 b 86 89 122 169 86 138 b 163 13 86 47 118 13 b 194 19 174 13 183 14 b 56 -99 189 -44 135 -93 l 56 -157 b 267 46 189 -153 267 -57 z "},"…":{"ha":1144,"x_min":0,"x_max":0,"o":"m 267 81 b 179 169 267 133 231 169 b 92 81 129 169 92 133 b 179 -7 92 31 129 -7 b 267 81 231 -7 267 31 z m 660 81 b 572 169 660 133 624 169 b 485 81 522 169 485 133 b 572 -7 485 31 522 -7 b 660 81 624 -7 660 31 z m 1053 81 b 965 169 1053 133 1017 169 b 878 81 915 169 878 133 b 965 -7 878 31 915 -7 b 1053 81 1017 -7 1053 31 z "},"!":{"ha":351,"x_min":0,"x_max":0,"o":"m 211 250 l 232 997 l 118 997 l 138 250 z m 264 79 b 175 167 264 131 226 167 b 86 79 125 167 86 131 b 175 -7 86 29 125 -7 b 264 79 225 -7 264 29 z "},"¡":{"ha":349,"x_min":0,"x_max":0,"o":"m 264 654 b 175 740 264 703 225 740 b 85 654 124 740 85 703 b 175 567 85 603 124 567 b 264 654 225 567 264 603 z m 232 -268 l 211 483 l 139 483 l 118 -268 z "},"#":{"ha":917,"x_min":0,"x_max":0,"o":"m 243 0 l 325 292 l 500 292 l 418 0 l 496 0 l 578 292 l 764 292 l 764 365 l 594 365 l 649 560 l 819 560 l 819 635 l 667 635 l 751 939 l 674 939 l 589 635 l 414 635 l 499 939 l 421 939 l 336 635 l 153 635 l 153 560 l 318 560 l 264 365 l 97 365 l 97 292 l 247 292 l 165 0 z m 396 560 l 571 560 l 517 365 l 342 365 z "},".":{"ha":358,"x_min":0,"x_max":0,"o":"m 267 81 b 179 169 267 133 231 169 b 92 81 129 169 92 133 b 179 -7 92 31 129 -7 b 267 81 231 -7 267 31 z "},"?":{"ha":611,"x_min":0,"x_max":0,"o":"m 118 758 b 300 925 119 857 194 925 b 482 761 414 925 482 853 b 386 596 482 693 447 653 l 311 529 b 244 250 232 457 224 397 l 313 250 b 394 493 304 392 324 432 l 464 553 b 586 769 539 618 586 681 b 307 1011 586 907 476 1011 b 25 758 147 1011 29 907 z m 372 79 b 282 167 372 131 333 167 b 193 79 231 167 193 131 b 282 -7 193 29 232 -7 b 372 79 333 -7 372 29 z "},"¿":{"ha":611,"x_min":0,"x_max":0,"o":"m 239 654 b 329 565 239 603 278 565 b 419 654 381 565 419 603 b 329 740 419 703 379 740 b 239 654 278 740 239 703 z m 494 -29 b 313 -196 492 -128 418 -196 b 129 -32 200 -196 129 -124 b 225 133 129 32 161 74 l 300 204 b 367 483 385 283 388 349 l 299 483 b 217 239 307 340 285 300 l 149 176 b 25 -40 65 103 25 40 b 306 -282 25 -178 135 -282 b 586 -29 465 -282 581 -178 z "},"\"":{"ha":546,"x_min":0,"x_max":0,"o":"m 214 738 l 224 997 l 132 997 l 140 738 z m 404 738 l 413 997 l 322 997 l 331 738 z "},"'":{"ha":356,"x_min":0,"x_max":0,"o":"m 214 738 l 224 997 l 132 997 l 140 738 z "},";":{"ha":358,"x_min":0,"x_max":0,"o":"m 261 646 b 175 735 261 697 225 735 b 86 646 124 735 86 697 b 175 558 86 594 124 558 b 261 646 225 558 261 594 z m 267 46 b 169 169 267 119 235 169 b 86 89 122 169 86 138 b 163 13 86 47 118 13 b 194 19 174 13 183 14 b 56 -99 189 -44 135 -93 l 56 -157 b 267 46 189 -153 267 -57 z "},"/":{"ha":671,"x_min":0,"x_max":0,"o":"m 75 -268 l 692 997 l 596 997 l -19 -268 z "},"_":{"ha":694,"x_min":0,"x_max":0,"o":"m 694 -268 l 694 -186 l 0 -186 l 0 -268 z "},"{":{"ha":431,"x_min":0,"x_max":0,"o":"m 31 324 b 168 208 135 324 168 288 l 168 -94 b 358 -271 168 -201 244 -271 b 400 -268 371 -271 385 -271 l 400 -186 b 371 -189 390 -189 381 -189 b 264 -81 306 -189 264 -149 l 264 210 b 161 365 264 293 232 347 b 264 519 229 383 264 436 l 264 811 b 371 918 264 878 304 918 b 400 915 381 918 390 918 l 400 999 b 357 1000 385 1000 371 1000 b 168 824 244 1000 168 932 l 168 521 b 31 406 168 440 135 406 z "},"}":{"ha":431,"x_min":0,"x_max":0,"o":"m 400 406 b 263 521 297 406 263 442 l 263 824 b 74 1000 263 931 186 1000 b 31 997 60 1000 46 1000 l 31 915 b 60 918 40 918 50 918 b 167 810 125 918 167 878 l 167 519 b 269 364 167 436 199 382 b 167 210 201 346 167 293 l 167 -82 b 60 -189 167 -149 126 -189 b 31 -186 50 -189 42 -189 l 31 -269 b 74 -271 46 -271 60 -271 b 263 -94 186 -271 263 -203 l 263 208 b 400 324 263 289 297 324 z "},"[":{"ha":425,"x_min":0,"x_max":0,"o":"m 374 -268 l 374 -186 l 232 -186 l 232 915 l 374 915 l 374 997 l 135 997 l 135 -268 z "},"]":{"ha":425,"x_min":0,"x_max":0,"o":"m 289 -268 l 289 997 l 51 997 l 51 915 l 193 915 l 193 -186 l 51 -186 l 51 -268 z "},"(":{"ha":422,"x_min":0,"x_max":0,"o":"m 386 -268 b 215 365 271 -94 215 135 b 386 997 215 594 271 824 l 294 997 b 118 365 181 824 118 594 b 294 -268 118 135 181 -94 z "},")":{"ha":422,"x_min":0,"x_max":0,"o":"m 128 -268 b 304 365 242 -94 304 135 b 128 997 304 594 242 824 l 36 997 b 207 365 150 824 207 594 b 36 -268 207 135 150 -94 z "},"—":{"ha":1042,"x_min":0,"x_max":0,"o":"m 1014 342 l 1014 426 l 28 426 l 28 342 z "},"–":{"ha":694,"x_min":0,"x_max":0,"o":"m 667 342 l 667 426 l 28 426 l 28 342 z "},"-":{"ha":501,"x_min":0,"x_max":0,"o":"m 471 340 l 471 426 l 32 426 l 32 340 z "},"­":{"ha":501,"x_min":0,"x_max":0,"o":"m 471 340 l 471 426 l 32 426 l 32 340 z "},"«":{"ha":639,"x_min":0,"x_max":0,"o":"m 343 86 l 151 371 l 343 656 l 239 656 l 44 371 l 239 86 z m 594 86 l 404 371 l 594 656 l 490 656 l 296 371 l 490 86 z "},"»":{"ha":639,"x_min":0,"x_max":0,"o":"m 44 656 l 235 371 l 44 86 l 149 86 l 343 371 l 149 656 z m 296 656 l 488 371 l 296 86 l 400 86 l 594 371 l 400 656 z "},"‹":{"ha":388,"x_min":0,"x_max":0,"o":"m 343 86 l 151 371 l 343 656 l 239 656 l 44 371 l 239 86 z "},"›":{"ha":388,"x_min":0,"x_max":0,"o":"m 44 656 l 235 371 l 44 86 l 149 86 l 343 371 l 149 656 z "},"„":{"ha":624,"x_min":0,"x_max":0,"o":"m 278 53 b 181 169 278 119 244 169 b 97 93 132 169 97 139 b 172 21 97 53 129 21 b 206 26 182 21 193 22 b 74 -78 197 -33 146 -76 l 74 -135 b 278 53 199 -137 278 -43 z m 539 53 b 442 169 539 119 506 169 b 358 93 393 169 358 139 b 433 21 358 53 390 21 b 467 26 444 21 456 22 b 335 -78 458 -33 408 -76 l 335 -135 b 539 53 461 -137 539 -43 z "},"“":{"ha":624,"x_min":0,"x_max":0,"o":"m 85 815 b 182 699 85 749 118 699 b 265 775 229 699 265 729 b 189 849 265 817 233 849 b 157 842 179 849 168 847 b 289 946 164 901 215 946 l 289 1003 b 85 815 163 1007 85 911 z m 346 815 b 443 699 346 749 379 699 b 526 775 492 699 526 729 b 451 849 526 817 494 849 b 418 842 440 849 429 847 b 550 946 425 901 476 946 l 550 1003 b 346 815 424 1007 346 911 z "},"”":{"ha":624,"x_min":0,"x_max":0,"o":"m 278 889 b 181 1006 278 956 244 1006 b 97 929 132 1006 97 975 b 172 856 97 888 129 856 b 206 863 183 856 194 857 b 74 758 197 803 146 758 l 74 701 b 278 889 199 697 278 793 z m 539 889 b 442 1006 539 956 506 1006 b 358 929 393 1006 358 975 b 433 856 358 888 390 856 b 467 863 444 856 456 857 b 335 758 458 803 408 758 l 335 701 b 539 889 461 697 539 793 z "},"‘":{"ha":363,"x_min":0,"x_max":0,"o":"m 85 815 b 182 699 85 749 118 699 b 265 775 229 699 265 729 b 189 849 265 817 233 849 b 157 842 179 849 168 847 b 289 946 164 901 215 946 l 289 1003 b 85 815 163 1007 85 911 z "},"’":{"ha":363,"x_min":0,"x_max":0,"o":"m 278 889 b 181 1006 278 956 244 1006 b 97 929 132 1006 97 975 b 172 856 97 888 129 856 b 206 863 183 856 194 857 b 74 758 197 803 146 758 l 74 701 b 278 889 199 697 278 793 z "},"‚":{"ha":363,"x_min":0,"x_max":0,"o":"m 278 53 b 181 169 278 119 244 169 b 97 93 132 169 97 139 b 172 21 97 53 129 21 b 206 26 182 21 193 22 b 74 -78 197 -33 146 -76 l 74 -135 b 278 53 199 -137 278 -43 z "},"¢":{"ha":781,"x_min":0,"x_max":0,"o":"m 431 -119 l 431 -12 b 729 283 596 3 706 122 l 631 283 b 393 71 607 164 532 71 b 149 367 249 71 149 193 b 393 660 149 539 249 660 b 631 449 532 660 610 567 l 729 449 b 431 743 703 610 594 728 l 431 857 l 361 857 l 361 743 b 51 367 176 728 51 574 b 361 -12 51 158 176 3 l 361 -119 z "},"¤":{"ha":917,"x_min":0,"x_max":0,"o":"m 458 178 b 633 240 526 178 588 200 l 728 144 l 785 201 l 692 294 b 749 469 728 342 749 403 b 692 646 749 536 728 597 l 785 739 l 728 794 l 635 700 b 458 761 588 738 526 761 b 282 700 390 761 329 738 l 189 794 l 132 739 l 225 646 b 168 469 189 597 168 536 b 225 294 168 403 189 342 l 132 201 l 189 144 l 283 240 b 458 178 329 200 390 178 z m 458 251 b 251 469 340 251 251 331 b 458 688 251 611 340 688 b 665 469 576 688 665 611 b 458 251 665 331 576 251 z "},"$":{"ha":824,"x_min":0,"x_max":0,"o":"m 443 -124 l 443 -12 b 742 260 636 -3 742 117 b 497 501 742 411 640 469 l 388 525 b 201 690 290 546 201 581 b 411 869 201 786 276 869 b 632 661 538 869 625 782 l 731 661 b 443 950 721 828 601 936 l 443 1065 l 372 1065 l 372 950 b 101 685 211 936 101 825 b 347 438 101 518 228 465 l 458 414 b 639 247 583 388 639 344 b 411 68 639 135 538 68 b 171 283 258 68 181 153 l 72 283 b 372 -12 79 119 188 3 l 372 -124 z "},"€":{"ha":804,"x_min":0,"x_max":0,"o":"m 758 124 b 586 74 710 90 651 74 b 282 361 419 74 311 175 l 611 361 l 611 425 l 268 425 b 271 546 267 458 268 518 l 611 546 l 611 610 l 288 610 b 586 865 322 776 426 865 b 758 814 654 865 708 850 l 758 910 b 574 953 706 940 651 953 b 183 610 367 953 226 829 l 35 610 l 35 546 l 174 546 b 172 425 172 514 171 454 l 35 425 l 35 361 l 181 361 b 574 -14 215 122 358 -14 b 758 31 651 -14 706 0 z "},"ƒ":{"ha":775,"x_min":0,"x_max":0,"o":"m 429 425 l 681 425 l 681 507 l 449 507 l 506 731 b 660 872 531 828 576 872 b 728 860 686 872 706 869 l 728 940 b 644 953 704 949 679 953 b 411 739 525 953 446 879 l 351 507 l 82 507 l 82 425 l 332 425 l 256 128 b 103 -1 233 38 178 -1 b 33 10 78 -1 58 3 l 33 -79 b 114 -89 61 -86 92 -89 b 350 117 247 -89 318 -14 z "},"₺":{"ha":789,"x_min":0,"x_max":0,"o":"m 656 399 b 304 75 650 213 503 78 l 304 456 l 626 536 l 626 603 l 304 522 l 304 646 l 626 728 l 626 793 l 304 711 l 304 939 l 207 939 l 207 689 l 35 644 l 35 578 l 207 622 l 207 497 l 35 454 l 35 388 l 207 431 l 207 0 b 279 -8 228 -6 253 -8 b 749 399 540 -8 739 163 z "},"₽":{"ha":800,"x_min":0,"x_max":0,"o":"m 714 192 l 714 258 l 313 258 l 313 382 l 414 382 b 753 660 617 382 753 483 b 421 939 753 842 619 939 l 217 939 l 217 449 l 35 449 l 35 382 l 217 382 l 217 258 l 35 258 l 35 192 l 217 192 l 217 0 l 313 0 l 313 192 z m 413 867 b 658 654 569 867 658 792 b 410 449 658 522 568 449 l 313 449 l 313 867 z "},"₹":{"ha":822,"x_min":0,"x_max":0,"o":"m 757 622 l 757 689 l 633 689 b 493 872 626 771 585 835 l 757 872 l 757 939 l 81 939 l 81 865 l 289 865 b 536 689 432 865 522 803 l 81 689 l 81 622 l 536 622 b 289 447 522 510 432 447 l 81 447 l 81 372 l 299 372 l 549 0 l 661 0 l 396 382 b 636 622 535 406 624 496 z "},"£":{"ha":760,"x_min":0,"x_max":0,"o":"m 208 132 b 538 -10 301 132 414 -10 b 707 210 651 -10 717 72 l 625 210 b 532 78 628 117 593 78 b 265 204 446 78 365 176 l 265 436 l 535 436 l 535 503 l 265 503 l 265 657 b 428 868 265 794 326 868 b 601 696 524 868 594 813 l 701 696 b 431 953 692 865 578 953 b 168 667 275 953 168 843 l 168 503 l 51 503 l 51 436 l 168 436 l 168 208 b 36 0 82 193 31 117 l 117 0 b 208 132 119 99 150 132 z "},"¥":{"ha":769,"x_min":0,"x_max":0,"o":"m 708 240 l 708 308 l 433 308 l 433 351 l 474 429 l 708 429 l 708 496 l 507 496 l 735 938 l 633 938 l 388 450 l 143 938 l 35 938 l 260 496 l 60 496 l 60 429 l 294 429 l 335 351 l 335 308 l 60 308 l 60 240 l 335 240 l 335 0 l 433 0 l 433 240 z "},"∙":{"ha":917,"x_min":0,"x_max":0,"o":"m 546 474 b 458 564 546 526 510 564 b 371 474 407 564 371 526 b 458 386 371 424 407 386 b 546 474 510 386 546 424 z "},"∕":{"ha":917,"x_min":0,"x_max":0,"o":"m 260 0 l 746 939 l 657 939 l 171 0 z "},"+":{"ha":917,"x_min":0,"x_max":0,"o":"m 503 121 l 503 425 l 806 425 l 806 507 l 503 507 l 503 810 l 414 810 l 414 507 l 111 507 l 111 425 l 414 425 l 414 121 z "},"−":{"ha":917,"x_min":0,"x_max":0,"o":"m 806 425 l 806 507 l 111 507 l 111 425 z "},"×":{"ha":917,"x_min":0,"x_max":0,"o":"m 213 165 l 458 411 l 703 167 l 761 224 l 515 469 l 761 715 l 703 772 l 458 526 l 213 772 l 156 715 l 401 469 l 156 224 z "},"÷":{"ha":917,"x_min":0,"x_max":0,"o":"m 546 715 b 458 804 546 768 510 804 b 371 715 407 804 371 768 b 458 628 371 665 407 628 b 546 715 510 628 546 665 z m 806 425 l 806 507 l 111 507 l 111 425 z m 546 221 b 458 310 546 272 510 310 b 371 221 407 310 371 272 b 458 133 371 169 407 133 b 546 221 510 133 546 169 z "},"=":{"ha":917,"x_min":0,"x_max":0,"o":"m 806 564 l 806 646 l 111 646 l 111 564 z m 806 286 l 806 368 l 111 368 l 111 286 z "},"≠":{"ha":917,"x_min":0,"x_max":0,"o":"m 324 286 l 171 0 l 260 0 l 413 286 l 806 286 l 806 368 l 449 368 l 553 564 l 806 564 l 806 646 l 588 646 l 746 939 l 657 939 l 500 646 l 111 646 l 111 564 l 464 564 l 360 368 l 111 368 l 111 286 z "},">":{"ha":917,"x_min":0,"x_max":0,"o":"m 806 425 l 806 503 l 111 808 l 111 724 l 706 464 l 111 204 l 111 119 z "},"<":{"ha":917,"x_min":0,"x_max":0,"o":"m 111 503 l 111 425 l 806 119 l 806 204 l 211 464 l 806 724 l 806 808 z "},"≥":{"ha":917,"x_min":0,"x_max":0,"o":"m 806 492 l 806 569 l 111 875 l 111 790 l 706 531 l 111 271 l 111 186 z m 806 1 l 806 83 l 111 83 l 111 1 z "},"≤":{"ha":917,"x_min":0,"x_max":0,"o":"m 111 569 l 111 492 l 806 186 l 806 271 l 211 531 l 806 790 l 806 875 z m 806 1 l 806 83 l 111 83 l 111 1 z "},"±":{"ha":917,"x_min":0,"x_max":0,"o":"m 503 189 l 503 492 l 806 492 l 806 574 l 503 574 l 503 876 l 414 876 l 414 574 l 111 574 l 111 492 l 414 492 l 414 189 z m 806 1 l 806 83 l 111 83 l 111 1 z "},"≈":{"ha":917,"x_min":0,"x_max":0,"o":"m 633 500 b 814 719 756 500 824 582 l 732 719 b 631 588 732 624 696 588 b 282 724 540 588 411 724 b 103 506 167 724 94 640 l 183 506 b 286 638 186 603 222 638 b 633 500 375 638 513 500 z m 633 225 b 814 443 756 225 824 307 l 732 443 b 631 311 732 349 696 311 b 282 449 540 311 411 449 b 103 229 167 449 94 364 l 183 229 b 286 363 186 328 222 363 b 633 225 375 363 513 225 z "},"~":{"ha":917,"x_min":0,"x_max":0,"o":"m 633 364 b 814 582 756 364 824 446 l 732 582 b 631 450 732 486 696 450 b 282 586 540 450 411 586 b 103 368 167 586 94 503 l 183 368 b 286 500 186 467 222 500 b 633 364 375 500 513 364 z "},"¬":{"ha":917,"x_min":0,"x_max":0,"o":"m 792 290 l 792 642 l 111 642 l 111 560 l 703 560 l 703 290 z "},"∞":{"ha":1465,"x_min":0,"x_max":0,"o":"m 1414 367 b 1090 746 1414 589 1279 746 b 732 451 919 746 815 618 b 374 746 649 619 544 746 b 51 367 185 746 51 589 b 374 -14 51 143 185 -14 b 732 282 544 -14 649 113 b 1090 -14 815 115 919 -14 b 1414 367 1279 -14 1414 143 z m 150 367 b 383 661 150 539 249 661 b 688 367 528 661 607 539 b 383 71 607 193 528 71 b 150 367 249 71 150 193 z m 778 367 b 1082 661 856 538 939 661 b 1315 367 1217 661 1315 540 b 1082 71 1315 193 1217 71 b 778 367 939 71 856 194 z "},"∫":{"ha":694,"x_min":0,"x_max":0,"o":"m 396 792 b 526 928 396 885 446 928 b 599 914 551 928 575 925 l 599 992 b 511 1007 571 1003 542 1007 b 300 792 388 1007 300 936 l 300 -68 b 176 -193 300 -156 251 -193 b 96 -179 146 -193 122 -189 l 96 -268 b 186 -282 126 -279 160 -282 b 396 -74 311 -282 396 -211 z "},"∆":{"ha":949,"x_min":0,"x_max":0,"o":"m 917 0 l 529 997 l 421 997 l 32 0 z m 472 890 l 782 85 l 161 85 z "},"∏":{"ha":997,"x_min":0,"x_max":0,"o":"m 213 -268 l 213 911 l 783 911 l 783 -268 l 885 -268 l 885 997 l 113 997 l 113 -268 z "},"∑":{"ha":835,"x_min":0,"x_max":0,"o":"m 783 -268 l 783 -182 l 175 -182 l 569 378 l 197 911 l 764 911 l 764 997 l 71 997 l 71 925 l 456 379 l 51 -196 l 51 -268 z "},"√":{"ha":1243,"x_min":0,"x_max":0,"o":"m 1214 997 l 1115 997 l 686 -156 l 472 426 l 111 426 l 111 340 l 400 340 l 629 -268 l 739 -268 z "},"∂":{"ha":801,"x_min":0,"x_max":0,"o":"m 51 361 b 400 -14 51 150 193 -14 b 750 351 608 -14 750 144 b 628 689 750 500 707 588 l 388 997 l 279 997 l 506 706 b 388 732 468 722 428 732 b 51 361 207 732 51 599 z m 150 363 b 401 654 150 547 251 654 b 651 351 546 654 651 543 b 401 72 651 175 551 72 b 150 363 251 72 150 179 z "},"µ":{"ha":786,"x_min":0,"x_max":0,"o":"m 203 -268 l 194 78 b 382 -14 232 15 303 -14 b 586 118 476 -14 554 40 l 586 0 l 681 0 l 681 732 l 585 732 l 585 292 b 386 71 585 164 511 71 b 203 285 278 71 203 136 l 203 732 l 106 732 l 106 -268 z "},"%":{"ha":1463,"x_min":0,"x_max":0,"o":"m 331 364 b 613 656 499 364 613 494 b 331 947 613 817 499 947 b 50 656 164 947 50 817 b 331 364 50 494 164 364 z m 503 0 l 1032 939 l 949 939 l 421 0 z m 331 435 b 133 656 224 435 133 515 b 331 876 133 797 224 876 b 528 656 439 876 528 797 b 331 435 528 515 439 435 z m 1132 -11 b 1414 281 1300 -11 1414 118 b 1132 572 1414 442 1300 572 b 850 281 964 572 850 442 b 1132 -11 850 118 964 -11 z m 1132 60 b 935 281 1025 60 935 140 b 1132 500 935 422 1025 500 b 1329 281 1239 500 1329 422 b 1132 60 1329 140 1239 60 z "},"‰":{"ha":2118,"x_min":0,"x_max":0,"o":"m 331 364 b 613 656 499 364 613 494 b 331 947 613 817 499 947 b 50 656 164 947 50 817 b 331 364 50 494 164 364 z m 503 0 l 1032 939 l 949 939 l 421 0 z m 331 435 b 133 656 224 435 133 515 b 331 876 133 797 224 876 b 528 656 439 876 528 797 b 331 435 528 515 439 435 z m 1132 -11 b 1414 281 1300 -11 1414 118 b 1132 572 1414 442 1300 572 b 850 281 964 572 850 442 b 1132 -11 850 118 964 -11 z m 1786 -11 b 2068 281 1954 -11 2068 118 b 1786 572 2068 442 1954 572 b 1506 281 1619 572 1506 442 b 1786 -11 1506 118 1619 -11 z m 1132 60 b 935 281 1025 60 935 140 b 1132 500 935 422 1025 500 b 1329 281 1239 500 1329 422 b 1132 60 1329 140 1239 60 z m 1786 60 b 1589 281 1679 60 1589 140 b 1786 500 1589 422 1679 500 b 1983 281 1894 500 1983 422 b 1786 60 1983 140 1894 60 z "},"◊":{"ha":954,"x_min":0,"x_max":0,"o":"m 533 -268 l 778 365 l 533 997 l 424 997 l 176 365 l 424 -268 z m 272 365 l 475 890 l 676 365 l 475 -161 z "},"@":{"ha":1324,"x_min":0,"x_max":0,"o":"m 1008 -108 b 658 -206 924 -168 801 -206 b 146 335 365 -206 146 31 b 672 876 146 642 369 876 b 1178 394 971 876 1178 660 b 992 119 1178 225 1106 119 b 882 232 921 119 882 158 b 890 301 882 253 885 276 l 949 608 l 860 608 l 836 488 b 632 628 804 576 732 628 b 357 313 472 628 357 493 b 594 43 357 156 454 43 b 814 167 688 43 764 86 b 989 43 831 89 889 43 b 1268 403 1150 43 1268 185 b 672 953 1268 711 1015 953 b 56 335 324 953 56 681 b 658 -282 56 -10 318 -282 b 1008 -190 792 -282 913 -249 z m 450 318 b 643 553 450 451 528 553 b 807 357 749 553 807 479 b 610 119 807 221 722 119 b 450 318 513 119 450 200 z "},"&":{"ha":849,"x_min":0,"x_max":0,"o":"m 371 526 b 265 728 301 608 265 654 b 418 875 265 813 332 875 b 581 726 497 875 572 821 l 671 726 b 418 953 667 860 561 953 b 168 728 276 953 168 857 b 246 535 168 654 193 603 b 50 278 133 489 50 399 b 368 -14 50 100 175 -14 b 624 92 458 -14 551 21 l 701 0 l 822 0 l 682 163 b 761 436 729 236 757 332 l 672 436 b 628 226 668 351 653 281 z m 143 282 b 294 478 143 376 207 447 l 575 149 b 374 65 522 96 450 65 b 143 282 214 65 143 179 z "},"¶":{"ha":907,"x_min":0,"x_max":0,"o":"m 503 -268 l 503 854 l 638 854 l 638 -268 l 732 -268 l 732 854 l 879 854 l 879 939 l 394 939 b 49 626 190 939 49 826 b 410 311 49 421 196 306 l 410 -268 z "},"§":{"ha":778,"x_min":0,"x_max":0,"o":"m 65 333 b 301 114 65 217 147 146 l 413 90 b 586 -60 535 65 586 25 b 390 -207 586 -146 504 -207 b 169 -33 264 -207 183 -137 l 75 -33 b 394 -282 94 -185 210 -282 b 682 -57 560 -282 682 -186 b 535 129 682 35 640 93 b 713 342 647 165 713 243 b 483 557 713 456 643 522 l 376 582 b 206 735 260 607 206 647 b 381 876 206 819 276 876 b 576 710 490 876 565 807 l 671 710 b 381 951 660 847 549 951 b 113 728 226 951 113 863 b 249 539 113 636 156 576 b 65 333 136 507 65 433 z m 158 342 b 353 492 158 422 222 492 b 619 332 492 492 619 447 b 421 181 619 251 554 181 b 158 342 283 181 158 228 z "},"©":{"ha":1093,"x_min":0,"x_max":0,"o":"m 546 -12 b 1039 469 828 -12 1039 203 b 546 953 1039 738 828 953 b 54 469 265 953 54 738 b 546 -12 54 203 265 -12 z m 546 46 b 124 469 299 46 124 238 b 546 893 124 703 299 893 b 969 469 793 893 969 703 b 546 46 969 238 793 46 z m 708 415 b 546 275 696 333 629 275 b 375 469 444 275 375 357 b 546 664 375 581 444 664 b 708 524 628 664 694 606 l 781 524 b 544 724 763 643 665 724 b 303 469 407 724 303 614 b 544 215 303 326 407 215 b 781 415 665 215 763 296 z "},"®":{"ha":1093,"x_min":0,"x_max":0,"o":"m 546 -12 b 1039 469 828 -12 1039 203 b 546 953 1039 738 828 953 b 54 469 265 953 54 738 b 546 -12 54 203 265 -12 z m 546 46 b 124 469 299 46 124 238 b 546 893 124 703 299 893 b 969 469 793 893 969 703 b 546 46 969 238 793 46 z m 667 225 l 750 225 l 617 419 b 738 563 688 436 738 489 b 560 714 738 658 669 714 l 379 714 l 379 225 l 447 225 l 447 411 l 544 411 z m 554 657 b 669 563 628 657 669 622 b 554 468 669 503 628 468 l 447 468 l 447 657 z "},"™":{"ha":1113,"x_min":0,"x_max":0,"o":"m 257 508 l 257 935 l 415 935 l 415 997 l 28 997 l 28 935 l 186 935 l 186 508 z m 703 508 l 768 508 l 933 913 l 933 508 l 1000 508 l 1000 997 l 903 997 l 736 593 l 569 997 l 467 997 l 467 508 l 533 508 l 533 918 z "},"°":{"ha":656,"x_min":0,"x_max":0,"o":"m 326 421 b 626 713 496 421 626 547 b 326 1004 626 879 496 1004 b 29 713 160 1004 29 879 b 326 421 29 547 160 421 z m 326 492 b 113 713 200 492 113 585 b 326 933 113 842 200 933 b 542 713 456 933 542 842 b 326 492 542 585 456 492 z "},"|":{"ha":375,"x_min":0,"x_max":0,"o":"m 235 -268 l 235 997 l 140 997 l 140 -268 z "},"¦":{"ha":374,"x_min":0,"x_max":0,"o":"m 140 997 l 140 417 l 233 417 l 233 997 z m 140 313 l 140 -268 l 233 -268 l 233 313 z "},"†":{"ha":917,"x_min":0,"x_max":0,"o":"m 503 -268 l 503 611 l 806 611 l 806 694 l 503 694 l 503 997 l 414 997 l 414 694 l 111 694 l 111 611 l 414 611 l 414 -268 z "},"‡":{"ha":917,"x_min":0,"x_max":0,"o":"m 503 -268 l 503 35 l 806 35 l 806 118 l 503 118 l 503 611 l 806 611 l 806 694 l 503 694 l 503 997 l 414 997 l 414 694 l 111 694 l 111 611 l 414 611 l 414 118 l 111 118 l 111 35 l 414 35 l 414 -268 z "},"℮":{"ha":1157,"x_min":0,"x_max":0,"o":"m 979 189 b 594 24 908 82 769 24 b 242 217 419 24 242 106 l 242 451 b 271 482 242 472 250 482 l 1122 482 b 579 1008 1104 789 892 1008 b 35 497 271 1008 35 760 b 594 -14 35 213 267 -14 b 1038 189 778 -14 935 51 z m 242 790 b 579 972 242 883 407 972 b 915 782 753 972 915 881 l 915 547 b 888 517 915 526 908 517 l 271 517 b 242 547 250 517 242 526 z "},"^":{"ha":917,"x_min":0,"x_max":0,"o":"m 700 381 l 794 381 l 504 939 l 414 939 l 122 381 l 218 381 l 458 846 z "},"̈":{"ha":694,"x_min":0,"x_max":0,"o":"m 550 903 b 472 979 550 949 518 979 b 393 903 426 979 393 949 b 472 828 393 861 426 828 b 550 903 518 828 550 861 z m 301 903 b 224 979 301 949 269 979 b 144 903 178 979 144 949 b 224 828 144 861 178 828 b 301 903 269 828 301 861 z "},"̇":{"ha":694,"x_min":0,"x_max":0,"o":"m 426 901 b 347 974 426 943 393 974 b 268 901 301 974 268 943 b 347 828 268 858 301 828 b 426 901 393 828 426 858 z "},"̀":{"ha":694,"x_min":0,"x_max":0,"o":"m 476 817 l 335 1003 l 218 1003 l 367 817 z "},"́":{"ha":694,"x_min":0,"x_max":0,"o":"m 328 817 l 475 1003 l 358 1003 l 218 817 z "},"̋":{"ha":694,"x_min":0,"x_max":0,"o":"m 447 817 l 594 1003 l 485 1003 l 343 817 z m 206 817 l 349 1003 l 239 1003 l 100 817 z "},"̂":{"ha":694,"x_min":0,"x_max":0,"o":"m 221 817 l 347 942 l 475 817 l 585 817 l 401 1003 l 294 1003 l 110 817 z "},"̌":{"ha":694,"x_min":0,"x_max":0,"o":"m 400 817 l 585 1003 l 474 1003 l 346 878 l 221 1003 l 110 1003 l 293 817 z "},"̆":{"ha":694,"x_min":0,"x_max":0,"o":"m 472 1003 b 347 879 472 931 426 879 b 222 1003 269 879 222 931 l 146 1003 b 347 813 146 893 224 813 b 550 1003 471 813 550 893 z "},"̊":{"ha":694,"x_min":0,"x_max":0,"o":"m 347 811 b 507 958 438 811 507 878 b 347 1106 507 1039 438 1106 b 189 958 256 1106 189 1039 b 347 811 189 878 256 811 z m 347 868 b 256 958 297 868 256 899 b 347 1047 256 1017 297 1047 b 439 958 399 1047 439 1017 b 347 868 439 899 399 868 z "},"̃":{"ha":694,"x_min":0,"x_max":0,"o":"m 189 815 b 253 925 188 888 211 925 b 447 824 314 925 357 824 b 572 1007 531 824 582 894 l 504 1007 b 442 897 506 935 483 897 b 246 999 381 897 338 999 b 122 815 163 999 113 928 z "},"̄":{"ha":694,"x_min":0,"x_max":0,"o":"m 544 836 l 544 906 l 151 906 l 151 836 z "},"̒":{"ha":694,"x_min":0,"x_max":0,"o":"m 264 893 b 346 810 264 846 296 810 b 415 867 385 810 415 831 b 356 919 415 897 389 919 b 326 914 346 919 336 917 b 432 978 331 953 369 978 l 432 1024 b 264 893 331 1029 264 964 z "},"̦":{"ha":694,"x_min":0,"x_max":0,"o":"m 431 -161 b 349 -78 431 -114 399 -78 b 279 -135 310 -78 279 -99 b 368 -182 279 -175 321 -199 b 263 -246 364 -221 325 -246 l 263 -292 b 431 -161 364 -299 431 -232 z "},"̧":{"ha":694,"x_min":0,"x_max":0,"o":"m 494 -164 b 365 -51 494 -101 440 -56 l 388 14 l 329 14 l 297 -86 b 419 -161 361 -79 419 -100 b 351 -221 419 -194 393 -221 b 267 -157 307 -221 275 -200 l 199 -157 b 353 -275 210 -233 271 -275 b 494 -164 433 -275 494 -231 z "},"̨":{"ha":694,"x_min":0,"x_max":0,"o":"m 454 -192 b 399 -204 433 -200 415 -204 b 324 -128 353 -204 324 -174 b 436 21 324 -57 378 -12 l 401 53 b 242 -150 315 -4 242 -65 b 378 -275 242 -228 300 -275 b 454 -261 401 -275 428 -271 z "},"̵":{"ha":694,"x_min":0,"x_max":0,"o":"m 551 831 l 551 900 l 144 900 l 144 831 z "},"̷":{"ha":694,"x_min":0,"x_max":0,"o":"m 560 514 l 560 596 l 136 482 l 136 401 z "},"̸":{"ha":694,"x_min":0,"x_max":0,"o":"m 96 0 l 681 732 l 597 732 l 13 0 z "},"ˉ":{"ha":694,"x_min":0,"x_max":0,"o":"m 543 831 l 543 900 l 151 900 l 151 831 z "},"´":{"ha":694,"x_min":0,"x_max":0,"o":"m 328 817 l 475 1003 l 358 1003 l 218 817 z "},"˘":{"ha":694,"x_min":0,"x_max":0,"o":"m 472 1003 b 347 879 472 931 426 879 b 222 1003 269 879 222 931 l 146 1003 b 347 813 146 893 224 813 b 550 1003 471 813 550 893 z "},"ˇ":{"ha":694,"x_min":0,"x_max":0,"o":"m 400 817 l 585 1003 l 474 1003 l 346 878 l 221 1003 l 110 1003 l 293 817 z "},"¸":{"ha":694,"x_min":0,"x_max":0,"o":"m 494 -164 b 365 -51 494 -101 440 -56 l 388 14 l 329 14 l 297 -86 b 419 -161 361 -79 419 -100 b 351 -221 419 -194 393 -221 b 267 -157 307 -221 275 -200 l 199 -157 b 353 -275 210 -233 271 -275 b 494 -164 433 -275 494 -231 z "},"ˆ":{"ha":694,"x_min":0,"x_max":0,"o":"m 221 817 l 347 942 l 475 817 l 585 817 l 401 1003 l 294 1003 l 110 817 z "},"¨":{"ha":694,"x_min":0,"x_max":0,"o":"m 550 903 b 472 979 550 949 518 979 b 393 903 426 979 393 949 b 472 828 393 861 426 828 b 550 903 518 828 550 861 z m 301 903 b 224 979 301 949 269 979 b 144 903 178 979 144 949 b 224 828 144 861 178 828 b 301 903 269 828 301 861 z "},"˙":{"ha":694,"x_min":0,"x_max":0,"o":"m 426 901 b 347 974 426 943 393 974 b 268 901 301 974 268 943 b 347 828 268 858 301 828 b 426 901 393 828 426 858 z "},"`":{"ha":694,"x_min":0,"x_max":0,"o":"m 476 817 l 335 1003 l 218 1003 l 367 817 z "},"˝":{"ha":694,"x_min":0,"x_max":0,"o":"m 447 817 l 594 1003 l 485 1003 l 343 817 z m 206 817 l 349 1003 l 239 1003 l 100 817 z "},"¯":{"ha":694,"x_min":0,"x_max":0,"o":"m 544 836 l 544 906 l 151 906 l 151 836 z "},"˛":{"ha":694,"x_min":0,"x_max":0,"o":"m 454 -192 b 399 -204 433 -200 415 -204 b 324 -128 353 -204 324 -174 b 436 21 324 -57 378 -12 l 401 53 b 242 -150 315 -4 242 -65 b 378 -275 242 -228 300 -275 b 454 -261 401 -275 428 -271 z "},"˚":{"ha":694,"x_min":0,"x_max":0,"o":"m 347 811 b 507 958 438 811 507 878 b 347 1106 507 1039 438 1106 b 189 958 256 1106 189 1039 b 347 811 189 878 256 811 z m 347 868 b 256 958 297 868 256 899 b 347 1047 256 1017 297 1047 b 439 958 399 1047 439 1017 b 347 868 439 899 399 868 z "},"˜":{"ha":694,"x_min":0,"x_max":0,"o":"m 189 815 b 253 925 188 888 211 925 b 447 824 314 925 357 824 b 572 1007 531 824 582 894 l 504 1007 b 442 897 506 935 483 897 b 246 999 381 897 338 999 b 122 815 163 999 113 928 z "},"\u0000":{"ha":0,"x_min":0,"x_max":0,"o":""},"\r":{"ha":389,"x_min":0,"x_max":0,"o":""},"":{"ha":2415,"x_min":0,"x_max":0,"o":"m 135 0 l 435 0 l 435 972 l 135 972 z m 497 689 l 797 689 l 797 972 l 497 972 z m 858 0 l 1160 0 l 1160 972 l 858 972 z m 1221 689 l 1521 689 l 1521 972 l 1221 972 z m 1582 0 l 1883 0 l 1883 972 l 1582 972 z m 1944 689 l 2244 689 l 2244 972 l 1944 972 z m 1944 343 l 2244 343 l 2244 628 l 1944 628 z "},"Q":{"ha":1117,"x_min":0,"x_max":0,"o":"m 558 -21 b 701 -1 608 -21 657 -14 l 850 -253 l 960 -253 l 792 36 b 1063 500 956 121 1063 296 b 558 1018 1063 790 847 1018 b 56 500 269 1018 56 790 b 558 -21 56 210 269 -21 z m 558 72 b 163 500 324 72 163 261 b 558 925 163 739 324 925 b 954 500 794 925 954 739 b 558 72 954 261 794 72 z "},"ı":{"ha":308,"x_min":0,"x_max":0,"o":"m 203 0 l 203 732 l 106 732 l 106 0 z "},"ȷ":{"ha":307,"x_min":0,"x_max":0,"o":"m 201 732 l 106 732 l 106 -68 b -11 -193 106 -156 60 -193 b -92 -179 -42 -193 -65 -189 l -92 -268 b -1 -282 -61 -281 -28 -282 b 201 -69 122 -282 201 -210 z "}}}
